<svg version="1.1" xmlns="http://www.w3.org/2000/svg" xmlns:xlink="http://www.w3.org/1999/xlink" height="614.4000244140625" width="614.4000244140625"><path d="M 171.2 103.8 C 174.4 104.6 179.04 104.28 187.2 107.8 C 195.36 111.32 204 115 212 121.4 C 220 127.8 223.04 133.88 227.2 139.8 C 231.36 145.72 231.04 144.12 232.8 151 C 234.56 157.88 235.84 166.68 236 174.2 C 236.16 181.72 235.52 182.2 233.6 188.6 C 231.68 195 232.16 195.64 226.4 206.2 C 220.64 216.76 211.2 232.12 204.8 241.4 C 198.4 250.68 199.2 247.96 194.4 252.6 C 189.6 257.24 187.04 259.8 180.8 264.6 C 174.56 269.4 170.24 273.72 163.2 276.6 C 156.16 279.48 151.52 279.8 145.6 279 C 139.68 278.2 138.08 276.12 133.6 272.6 C 129.12 269.08 126.72 267.16 123.2 261.4 C 119.68 255.64 119.04 252.76 116 243.8 C 112.96 234.84 109.6 223.64 108 216.6 C 106.4 209.56 107.84 212.76 108 208.6 C 108.16 204.44 107.36 200.92 108.8 195.8 C 110.24 190.68 108.64 192.92 115.2 183 C 121.76 173.08 135.36 154.68 141.6 146.2 C 147.84 137.72 144 142.84 146.4 140.6 C 148.8 138.36 151.52 136.44 153.6 135 C 155.68 133.56 155.84 133.72 156.8 133.4 C 157.76 133.08 158.08 133.4 158.4 133.4" fill="none" stroke="#000" stroke-linecap="round" stroke-linejoin="round" stroke-width="5"></path><path d="M 336 59 C 338.56 58.2 342.56 56.92 348.8 55 C 355.04 53.08 359.2 50.84 367.2 49.4 C 375.2 47.96 379.84 47.8 388.8 47.8 C 397.76 47.8 404.32 47.8 412 49.4 C 419.68 51 422.88 53.88 427.2 55.8 C 431.52 57.72 431.36 57.56 433.6 59 C 435.84 60.44 436.64 61.08 438.4 63 C 440.16 64.92 439.68 63.16 442.4 68.6 C 445.12 74.04 449.76 84.28 452 90.2 C 454.24 96.12 452.96 95.16 453.6 98.2 C 454.24 101.24 454.88 102.04 455.2 105.4 C 455.52 108.76 455.2 108.44 455.2 115 C 455.2 121.56 455.36 130.2 455.2 138.2 C 455.04 146.2 455.04 149.24 454.4 155 C 453.76 160.76 452.96 162.04 452 167 C 451.04 171.96 451.84 173.72 449.6 179.8 C 447.36 185.88 443.68 192.6 440.8 197.4 C 437.92 202.2 437.76 201.4 435.2 203.8 C 432.64 206.2 431.04 207 428 209.4 C 424.96 211.8 423.36 213.08 420 215.8 C 416.64 218.52 414.56 220.6 411.2 223 C 407.84 225.4 405.92 226.68 403.2 227.8 C 400.48 228.92 400.16 228.28 397.6 228.6 C 395.04 228.92 393.76 229.24 390.4 229.4 C 387.04 229.56 384 229.72 380.8 229.4 C 377.6 229.08 376.16 228.44 374.4 227.8 C 372.64 227.16 373.44 227 372 226.2 C 370.56 225.4 370.88 227.16 367.2 223.8 C 363.52 220.44 357.6 214.36 353.6 209.4 C 349.6 204.44 349.44 203 347.2 199 C 344.96 195 344 192.76 342.4 189.4 C 340.8 186.04 340.48 185.08 339.2 182.2 C 337.92 179.32 336.64 177.4 336 175 C 335.36 172.6 336 172.44 336 170.2 C 336 167.96 336 166.68 336 163.8 C 336 160.92 336 160.6 336 155.8 C 336 151 336 144.12 336 139.8 C 336 135.48 336 136.12 336 134.2 C 336 132.28 336 131.96 336 130.2 C 336 128.44 336 129.08 336 125.4 C 336 121.72 335.36 118.2 336 111.8 C 336.64 105.4 338.56 98.84 339.2 93.4 C 339.84 87.96 339.2 86.84 339.2 84.6 C 339.2 82.36 339.2 83.16 339.2 82.2 C 339.2 81.24 339.2 80.6 339.2 79.8 C 339.2 79 339.2 78.68 339.2 78.2 C 339.2 77.72 339.2 77.56 339.2 77.4" fill="none" stroke="#000" stroke-linecap="round" stroke-linejoin="round" stroke-width="5"></path></svg>