<svg width="229" height="213" viewBox="0 0 229 213" fill="none" xmlns="http://www.w3.org/2000/svg">
<path d="M228.364 176.143C228.353 176.051 228.351 175.963 228.336 175.871C228.006 173.387 225.902 171.461 223.329 171.461H198.702C195.9 171.461 193.626 173.732 193.626 176.536C193.626 179.34 195.898 181.612 198.702 181.612H212.2C201.245 192.331 187.203 199.237 171.74 201.356C152.692 203.967 133.787 198.998 118.479 187.378C105.877 177.813 97.3193 164.87 93.0989 150.76C113.982 147.94 133.782 137.152 147.502 119.08C167.266 93.0476 164.094 72.5803 155.371 62.9646C146.421 53.0951 131.217 52.519 116.64 61.4901C109.579 65.8348 102.834 72.2072 96.591 80.4322C83.331 97.8999 77.6666 119.481 80.6409 141.21C80.646 141.258 80.6536 141.301 80.6587 141.35C65.9496 141.07 51.1948 136.304 38.6073 126.747C23.3019 115.126 13.4349 98.2425 10.8286 79.2039C8.2223 60.1629 13.1862 41.2487 24.8043 25.9432L24.8068 25.9407C30.2859 18.7206 36.1025 13.1908 42.0917 9.50588C44.4773 8.03649 45.2234 4.91246 43.754 2.5244C42.2872 0.138867 39.1606 -0.60978 36.7725 0.862143C29.7098 5.20685 22.9644 11.5793 16.7214 19.8043L16.7138 19.8144C3.45885 37.2795 -2.20043 58.8584 0.773868 80.5794C3.74817 102.306 15.0058 121.572 32.471 134.83C47.482 146.227 65.1984 151.729 82.7143 151.503C87.4041 168.986 97.6873 184.34 112.338 195.46C126.765 206.414 144.002 212.185 161.805 212.185C165.556 212.185 169.334 211.928 173.113 211.411C190.286 209.061 205.907 201.518 218.253 189.844V201.163C218.253 203.965 220.524 206.238 223.329 206.238C226.133 206.238 228.404 203.967 228.404 201.163V176.536C228.404 176.402 228.374 176.275 228.364 176.143ZM104.676 86.5712C110.158 79.3511 115.972 73.8213 121.959 70.1364C127.25 66.8804 132.42 65.2511 136.96 65.2511C141.327 65.2511 145.111 66.7611 147.854 69.7862C154.448 77.0544 154.394 93.2177 139.419 112.949C127.207 129.036 109.496 138.535 90.8758 140.822C88.0766 122.27 92.467 102.656 104.676 86.5712Z" fill="black"/>
</svg>
