<svg version="1.1" xmlns="http://www.w3.org/2000/svg" xmlns:xlink="http://www.w3.org/1999/xlink" height="614.4000244140625" width="614.4000244140625"><path d="M 284 359.8 C 283.52 359.48 282.4 358.84 281.6 358.2 C 280.8 357.56 282.4 358.68 280 356.6 C 277.6 354.52 273.12 350.68 269.6 347.8 C 266.08 344.92 266.56 344.92 262.4 342.2 C 258.24 339.48 253.44 337.24 248.8 334.2 C 244.16 331.16 243.84 330.36 239.2 327 C 234.56 323.64 230.24 320.92 225.6 317.4 C 220.96 313.88 220.16 312.6 216 309.4 C 211.84 306.2 210.24 305.72 204.8 301.4 C 199.36 297.08 193.92 292.28 188.8 287.8 C 183.68 283.32 184.8 284.76 179.2 279 C 173.6 273.24 165.28 263.96 160.8 259 C 156.32 254.04 160.16 259.32 156.8 254.2 C 153.44 249.08 147.84 239.96 144 233.4 C 140.16 226.84 139.84 226.84 137.6 221.4 C 135.36 215.96 134.08 211.16 132.8 206.2 C 131.52 201.24 131.68 200.44 131.2 196.6 C 130.72 192.76 130.4 191.96 130.4 187 C 130.4 182.04 130.56 176.92 131.2 171.8 C 131.84 166.68 132.32 165.24 133.6 161.4 C 134.88 157.56 135.52 156.12 137.6 152.6 C 139.68 149.08 141.76 146.36 144 143.8 C 146.24 141.24 146.72 141.4 148.8 139.8 C 150.88 138.2 151.36 137.4 154.4 135.8 C 157.44 134.2 159.84 132.76 164 131.8 C 168.16 130.84 172.16 131.16 175.2 131 C 178.24 130.84 176.96 130.52 179.2 131 C 181.44 131.48 181.92 131.64 186.4 133.4 C 190.88 135.16 197.76 138.04 201.6 139.8 C 205.44 141.56 203.52 140.6 205.6 142.2 C 207.68 143.8 208.64 144.12 212 147.8 C 215.36 151.48 219.84 157.4 222.4 160.6 C 224.96 163.8 222.88 161.08 224.8 163.8 C 226.72 166.52 230.08 171.48 232 174.2 C 233.92 176.92 233.28 176.12 234.4 177.4 C 235.52 178.68 236.64 179.8 237.6 180.6 C 238.56 181.4 238.72 181.08 239.2 181.4 C 239.68 181.72 239.68 182.04 240 182.2 C 240.32 182.36 240.48 182.68 240.8 182.2 C 241.12 181.72 241.44 181.24 241.6 179.8 C 241.76 178.36 241.6 176.6 241.6 175 C 241.6 173.4 241.6 174.04 241.6 171.8 C 241.6 169.56 241.44 168.28 241.6 163.8 C 241.76 159.32 241.76 154.52 242.4 149.4 C 243.04 144.28 243.68 142.04 244.8 138.2 C 245.92 134.36 246.72 133.08 248 130.2 C 249.28 127.32 249.44 126.84 251.2 123.8 C 252.96 120.76 254.88 117.72 256.8 115 C 258.72 112.28 257.92 112.76 260.8 110.2 C 263.68 107.64 268.64 104.28 271.2 102.2 C 273.76 100.12 271.36 101.08 273.6 99.8 C 275.84 98.52 279.52 96.76 282.4 95.8 C 285.28 94.84 286.4 95.16 288 95 C 289.6 94.84 287.36 94.68 290.4 95 C 293.44 95.32 299.04 95.64 303.2 96.6 C 307.36 97.56 307.36 98.2 311.2 99.8 C 315.04 101.4 318.88 102.52 322.4 104.6 C 325.92 106.68 326.08 107.64 328.8 110.2 C 331.52 112.76 332.96 113.72 336 117.4 C 339.04 121.08 341.6 124.6 344 128.6 C 346.4 132.6 346.56 133.56 348 137.4 C 349.44 141.24 349.76 142.36 351.2 147.8 C 352.64 153.24 354.24 158.84 355.2 164.6 C 356.16 170.36 355.84 173.08 356 176.6 C 356.16 180.12 356.48 175.64 356 182.2 C 355.52 188.76 354.56 201.08 353.6 209.4 C 352.64 217.72 352.64 216.76 351.2 223.8 C 349.76 230.84 348.32 237.56 346.4 244.6 C 344.48 251.64 343.52 253.24 341.6 259 C 339.68 264.76 339.36 266.2 336.8 273.4 C 334.24 280.6 331.52 288.12 328.8 295 C 326.08 301.88 326.08 301.4 323.2 307.8 C 320.32 314.2 316.8 322.04 314.4 327 C 312 331.96 314.88 325.4 311.2 332.6 C 307.52 339.8 299.52 355.64 296 363 C 292.48 370.36 295.2 365.56 293.6 369.4 C 292 373.24 291.52 374.84 288 382.2 C 284.48 389.56 279.2 399.16 276 406.2 C 272.8 413.24 272.8 415.16 272 417.4" fill="none" stroke="#000" stroke-linecap="round" stroke-linejoin="round" stroke-width="5"></path></svg>