<svg width="276" height="276" viewBox="0 0 276 276" fill="none" xmlns="http://www.w3.org/2000/svg">
<rect width="276" height="276" fill="#F0C575"/>
<path d="M37.8871 231.132C36.8573 231.132 35.8989 230.911 35.0121 230.467C34.1253 230.01 33.4101 229.38 32.8666 228.579C32.3374 227.764 32.0728 226.82 32.0728 225.747C32.0728 225.018 32.2229 224.338 32.5233 223.709C32.838 223.08 33.2385 222.479 33.7248 221.907C34.2111 221.335 34.7189 220.777 35.2481 220.233C35.4913 219.99 35.7702 219.818 36.0849 219.718C36.3996 219.604 36.7357 219.547 37.0933 219.547C38.0802 219.547 39.0099 219.654 39.8825 219.868C40.755 220.069 41.5274 220.398 42.1996 220.855C42.8862 221.313 43.4226 221.907 43.8088 222.636C44.195 223.366 44.3881 224.252 44.3881 225.297C44.3881 226.155 44.2021 226.942 43.8302 227.657C43.4726 228.372 42.9792 228.994 42.3498 229.523C41.7348 230.038 41.041 230.439 40.2687 230.725C39.4963 230.997 38.7024 231.132 37.8871 231.132ZM37.4151 229.545C38.0731 229.545 38.7239 229.452 39.3675 229.266C40.0255 229.08 40.6191 228.801 41.1483 228.429C41.6775 228.043 42.0995 227.564 42.4142 226.992C42.7432 226.419 42.9076 225.74 42.9076 224.953C42.9076 224.238 42.7503 223.63 42.4356 223.13C42.1353 222.615 41.7348 222.2 41.2341 221.885C40.7335 221.556 40.19 221.313 39.6035 221.156C39.0171 220.998 38.445 220.92 37.8871 220.92C37.6583 220.92 37.4008 220.941 37.1147 220.984C36.843 221.013 36.5784 221.149 36.3209 221.392C36.0062 221.692 35.6844 222 35.3554 222.314C35.0407 222.615 34.7475 222.951 34.4757 223.323C34.204 223.68 33.9823 224.081 33.8106 224.524C33.639 224.968 33.5532 225.447 33.5532 225.962C33.5532 226.791 33.7248 227.471 34.0681 228C34.4257 228.529 34.8977 228.923 35.4841 229.18C36.0706 229.423 36.7142 229.545 37.4151 229.545ZM47.6006 231.025C47.0714 231.025 46.8068 230.696 46.8068 230.038C46.8068 229.123 46.864 228.2 46.9784 227.271C47.0929 226.326 47.1501 225.411 47.1501 224.524C47.1501 223.509 47.1286 222.486 47.0857 221.456C47.0571 220.412 47.0214 219.447 46.9784 218.56C46.9355 217.659 46.8926 216.922 46.8497 216.35C46.8497 216.264 46.8426 216.185 46.8283 216.114C46.8283 216.028 46.8283 215.949 46.8283 215.878C46.8283 215.592 46.8783 215.356 46.9784 215.17C47.0786 214.984 47.286 214.891 47.6006 214.891C47.901 214.891 48.1227 215.048 48.2658 215.363C48.4231 215.663 48.5232 216.014 48.5661 216.414C48.6233 216.815 48.6519 217.151 48.6519 217.423C48.6519 217.923 48.6448 218.524 48.6305 219.225C48.6162 219.911 48.609 220.612 48.609 221.327C48.609 222.143 48.6162 222.929 48.6305 223.687C48.6448 224.446 48.6663 225.075 48.6949 225.576C48.7378 226.076 48.7878 226.362 48.845 226.434C49.2598 225.976 49.6174 225.554 49.9178 225.168C50.2182 224.782 50.5042 224.41 50.776 224.052C50.9334 223.838 51.1121 223.602 51.3124 223.344C51.5269 223.087 51.7415 222.851 51.9561 222.636C52.3709 222.193 52.8071 221.842 53.2648 221.585C53.7368 221.313 54.2589 221.177 54.8311 221.177C55.5462 221.177 56.1255 221.449 56.5689 221.993C57.0123 222.522 57.2841 223.158 57.3842 223.902L58.0708 228.708V229.352C58.0708 229.623 58.0565 229.895 58.0279 230.167C57.9993 230.439 57.8205 230.575 57.4915 230.575C57.0338 230.575 56.7549 230.46 56.6547 230.231C56.5689 230.002 56.526 229.731 56.526 229.416C56.526 228.129 56.4402 227.042 56.2686 226.155C56.1112 225.254 55.9968 224.61 55.9253 224.224C55.8251 223.709 55.6607 223.316 55.4318 223.044C55.2172 222.758 54.9812 222.615 54.7238 222.615C54.3233 222.615 53.9585 222.758 53.6296 223.044C53.3006 223.316 53.0503 223.566 52.8786 223.795C52.378 224.424 51.8702 225.118 51.3553 225.876C50.8404 226.62 50.3398 227.371 49.8534 228.129C49.3671 228.873 48.9094 229.566 48.4803 230.21C48.3945 230.339 48.2801 230.51 48.137 230.725C47.994 230.925 47.8152 231.025 47.6006 231.025ZM72.548 231.454C72.1618 231.454 71.7113 231.433 71.1964 231.39C70.6814 231.347 70.1737 231.254 69.673 231.111C69.1867 230.968 68.7791 230.739 68.4501 230.424C68.1354 230.11 67.9781 229.688 67.9781 229.159C67.9781 228.472 68.2498 228.129 68.7934 228.129C68.9793 228.129 69.1224 228.193 69.2225 228.322L69.4156 228.579C69.4585 228.637 69.4942 228.701 69.5229 228.772C69.5658 228.83 69.6158 228.894 69.673 228.965C69.8733 229.266 70.1594 229.545 70.5312 229.802C70.9031 230.06 71.461 230.188 72.2048 230.188C72.6339 230.188 73.1059 230.124 73.6208 229.995C74.1357 229.852 74.572 229.631 74.9296 229.33C75.3015 229.03 75.4874 228.629 75.4874 228.129C75.4874 227.714 75.3587 227.385 75.1012 227.142C74.8437 226.899 74.5577 226.706 74.243 226.562C74.1 226.491 73.9355 226.419 73.7495 226.348C73.5779 226.276 73.3919 226.212 73.1917 226.155C73.0058 226.098 72.8198 226.04 72.6339 225.983C72.4479 225.926 72.2548 225.869 72.0546 225.812C71.5396 225.64 71.0676 225.447 70.6385 225.232C70.2237 225.003 69.8876 224.717 69.6301 224.374C69.387 224.031 69.2654 223.595 69.2654 223.065C69.2654 222.407 69.4799 221.857 69.909 221.413C70.3525 220.97 70.9031 220.641 71.5611 220.426C72.2334 220.197 72.9128 220.083 73.5993 220.083C73.8568 220.083 74.1572 220.104 74.5005 220.147C74.8437 220.19 75.1799 220.269 75.5089 220.383C75.8378 220.498 76.1096 220.662 76.3242 220.877C76.553 221.077 76.6674 221.349 76.6674 221.692C76.6674 221.864 76.6317 222.014 76.5602 222.143C76.503 222.257 76.41 222.314 76.2812 222.314C76.1954 222.314 76.1239 222.3 76.0667 222.271C75.4373 221.985 74.9081 221.778 74.479 221.649C74.0642 221.521 73.6995 221.456 73.3848 221.456C73.1988 221.456 72.9557 221.485 72.6553 221.542C72.3692 221.585 72.0832 221.664 71.7971 221.778C71.511 221.878 71.2679 222.028 71.0676 222.229C70.8817 222.414 70.7887 222.658 70.7887 222.958C70.7887 223.502 71.2035 223.952 72.0331 224.31C72.3335 224.424 72.6696 224.539 73.0415 224.653C73.4134 224.767 73.7996 224.903 74.2001 225.061C74.715 225.247 75.187 225.468 75.6161 225.726C76.0452 225.983 76.3814 226.298 76.6245 226.67C76.882 227.027 77.0107 227.478 77.0107 228.021C77.0107 228.837 76.8033 229.502 76.3885 230.017C75.9737 230.517 75.4302 230.882 74.7579 231.111C74.0857 231.34 73.349 231.454 72.548 231.454ZM84.8833 231.132C83.8534 231.132 82.8951 230.911 82.0083 230.467C81.1215 230.01 80.4063 229.38 79.8628 228.579C79.3335 227.764 79.0689 226.82 79.0689 225.747C79.0689 225.018 79.2191 224.338 79.5195 223.709C79.8342 223.08 80.2346 222.479 80.721 221.907C81.2073 221.335 81.7151 220.777 82.2443 220.233C82.4874 219.99 82.7664 219.818 83.081 219.718C83.3957 219.604 83.7319 219.547 84.0894 219.547C85.0764 219.547 86.0061 219.654 86.8786 219.868C87.7511 220.069 88.5235 220.398 89.1958 220.855C89.8823 221.313 90.4187 221.907 90.8049 222.636C91.1911 223.366 91.3842 224.252 91.3842 225.297C91.3842 226.155 91.1983 226.942 90.8264 227.657C90.4688 228.372 89.9753 228.994 89.346 229.523C88.7309 230.038 88.0372 230.439 87.2648 230.725C86.4924 230.997 85.6986 231.132 84.8833 231.132ZM84.4113 229.545C85.0692 229.545 85.72 229.452 86.3637 229.266C87.0217 229.08 87.6152 228.801 88.1445 228.429C88.6737 228.043 89.0957 227.564 89.4103 226.992C89.7393 226.419 89.9038 225.74 89.9038 224.953C89.9038 224.238 89.7465 223.63 89.4318 223.13C89.1314 222.615 88.7309 222.2 88.2303 221.885C87.7297 221.556 87.1861 221.313 86.5997 221.156C86.0133 220.998 85.4411 220.92 84.8833 220.92C84.6544 220.92 84.397 220.941 84.1109 220.984C83.8391 221.013 83.5745 221.149 83.317 221.392C83.0024 221.692 82.6805 222 82.3516 222.314C82.0369 222.615 81.7437 222.951 81.4719 223.323C81.2001 223.68 80.9784 224.081 80.8068 224.524C80.6351 224.968 80.5493 225.447 80.5493 225.962C80.5493 226.791 80.721 227.471 81.0643 228C81.4218 228.529 81.8939 228.923 82.4803 229.18C83.0667 229.423 83.7104 229.545 84.4113 229.545ZM103.085 237.183C102.842 237.183 102.685 237.054 102.613 236.797C102.541 236.553 102.506 236.282 102.506 235.981C102.506 235.867 102.506 235.745 102.506 235.617C102.52 235.502 102.527 235.395 102.527 235.295C102.527 233.836 102.592 232.441 102.72 231.111C102.849 229.766 102.942 228.465 102.999 227.206C103.014 226.877 103.028 226.47 103.042 225.983C103.056 225.497 103.064 225.032 103.064 224.589C103.078 224.145 103.078 223.823 103.064 223.623C102.792 223.623 102.577 223.523 102.42 223.323C102.263 223.123 102.184 222.929 102.184 222.743C102.184 222.6 102.248 222.414 102.377 222.186C102.52 221.942 102.727 221.771 102.999 221.671C103.028 221.599 103.042 221.528 103.042 221.456C103.042 221.37 103.042 221.277 103.042 221.177C103.042 220.863 103.014 220.512 102.956 220.126C102.913 219.725 102.878 219.432 102.849 219.246C102.835 219.16 102.921 219.067 103.106 218.967C103.292 218.867 103.478 218.817 103.664 218.817C103.922 218.817 104.101 218.903 104.201 219.075C104.301 219.246 104.365 219.461 104.394 219.718C104.422 219.976 104.458 220.233 104.501 220.491C105.145 220.233 105.667 220.04 106.067 219.911C106.468 219.783 106.847 219.697 107.204 219.654C107.562 219.611 107.991 219.59 108.492 219.59C109.421 219.59 110.265 219.74 111.023 220.04C111.796 220.34 112.411 220.791 112.869 221.392C113.326 221.978 113.555 222.715 113.555 223.602C113.555 224.446 113.376 225.289 113.019 226.133C112.676 226.977 112.196 227.75 111.581 228.451C110.981 229.137 110.287 229.688 109.5 230.103C108.713 230.517 107.884 230.725 107.011 230.725C106.782 230.725 106.561 230.703 106.346 230.66C106.132 230.603 105.91 230.56 105.681 230.532C105.595 230.517 105.509 230.51 105.424 230.51C105.338 230.496 105.259 230.489 105.188 230.489H104.48C104.48 230.818 104.48 231.275 104.48 231.862C104.48 232.448 104.465 233.071 104.437 233.729C104.422 234.387 104.394 235.002 104.351 235.574C104.322 236.017 104.186 236.396 103.943 236.711C103.714 237.025 103.428 237.183 103.085 237.183ZM106.904 229.287C107.619 229.287 108.284 229.123 108.899 228.794C109.529 228.451 110.079 228 110.551 227.442C111.038 226.884 111.41 226.284 111.667 225.64C111.939 224.982 112.075 224.338 112.075 223.709C112.075 223.022 111.903 222.479 111.56 222.078C111.217 221.664 110.78 221.37 110.251 221.199C109.736 221.013 109.193 220.92 108.62 220.92C108.334 220.92 108.034 220.934 107.719 220.963C107.405 220.977 107.104 221.049 106.818 221.177C106.189 221.449 105.703 221.749 105.359 222.078C105.03 222.393 104.809 222.772 104.694 223.215C104.637 223.416 104.601 223.623 104.587 223.838C104.573 224.052 104.565 224.274 104.565 224.503C104.565 224.732 104.573 224.975 104.587 225.232C104.601 225.49 104.608 225.762 104.608 226.048V227.828C104.608 228.157 104.737 228.436 104.995 228.665C105.252 228.88 105.56 229.037 105.917 229.137C106.275 229.237 106.604 229.287 106.904 229.287ZM116.068 231.347C115.911 231.347 115.79 231.275 115.704 231.132C115.632 230.989 115.582 230.825 115.554 230.639C115.525 230.453 115.496 230.296 115.468 230.167V228.472C115.468 227.614 115.503 226.734 115.575 225.833C115.661 224.932 115.704 224.052 115.704 223.194C115.704 222.779 115.675 222.364 115.618 221.95C115.575 221.535 115.525 221.184 115.468 220.898C115.453 220.827 115.439 220.762 115.425 220.705C115.425 220.648 115.425 220.591 115.425 220.534C115.425 220.348 115.482 220.226 115.596 220.169C115.711 220.112 115.904 220.083 116.176 220.083C116.505 220.083 116.748 220.226 116.905 220.512C117.063 220.798 117.177 221.134 117.248 221.521C117.334 221.892 117.413 222.229 117.484 222.529C117.899 222.028 118.35 221.664 118.836 221.435C119.322 221.206 119.73 221.006 120.059 220.834C120.374 220.677 120.688 220.555 121.003 220.469C121.332 220.369 121.697 220.319 122.097 220.319C122.498 220.319 122.87 220.433 123.213 220.662C123.571 220.877 123.749 221.113 123.749 221.37C123.749 221.671 123.656 221.892 123.47 222.035C123.285 222.178 123.07 222.25 122.827 222.25C122.755 222.25 122.684 222.243 122.612 222.229C122.555 222.2 122.491 222.178 122.419 222.164C122.319 222.121 122.205 222.086 122.076 222.057C121.961 222.028 121.847 222.014 121.733 222.014C121.289 222.014 120.86 222.1 120.445 222.271C120.031 222.429 119.68 222.586 119.394 222.743C118.893 223.015 118.5 223.323 118.214 223.666C117.942 223.995 117.713 224.303 117.527 224.589C117.427 225.132 117.363 225.661 117.334 226.176C117.306 226.691 117.284 227.092 117.27 227.378C117.256 227.678 117.241 227.993 117.227 228.322C117.213 228.651 117.191 228.98 117.163 229.309C117.134 229.652 117.091 229.981 117.034 230.296C116.977 230.61 116.877 230.868 116.734 231.068C116.591 231.254 116.369 231.347 116.068 231.347ZM129.784 231.454C128.697 231.454 127.71 231.297 126.823 230.982C125.951 230.653 125.257 230.146 124.742 229.459C124.227 228.758 123.97 227.857 123.97 226.756C123.97 225.883 124.113 225.032 124.399 224.202C124.699 223.373 125.121 222.622 125.665 221.95C126.208 221.277 126.859 220.748 127.617 220.362C128.375 219.961 129.219 219.761 130.149 219.761C130.793 219.761 131.372 219.883 131.887 220.126C132.416 220.369 132.838 220.712 133.153 221.156C133.467 221.599 133.625 222.128 133.625 222.743C133.625 223.401 133.482 224.031 133.196 224.632C132.924 225.218 132.552 225.74 132.08 226.198C131.608 226.655 131.072 227.02 130.471 227.292C129.884 227.549 129.269 227.678 128.626 227.678C128.068 227.678 127.546 227.635 127.059 227.549C126.573 227.449 126.123 227.299 125.708 227.099C125.708 227.642 125.836 228.107 126.094 228.493C126.351 228.865 126.68 229.173 127.081 229.416C127.481 229.645 127.896 229.817 128.325 229.931C128.769 230.031 129.176 230.081 129.548 230.081C129.849 230.081 130.149 230.067 130.449 230.038C130.75 229.995 131.079 229.974 131.436 229.974C131.965 229.974 132.23 230.203 132.23 230.66C132.23 231.018 131.98 231.247 131.479 231.347C131.207 231.404 130.928 231.433 130.642 231.433C130.356 231.447 130.07 231.454 129.784 231.454ZM128.626 225.962C129.126 225.962 129.648 225.862 130.192 225.661C130.735 225.461 131.193 225.146 131.565 224.717C131.951 224.288 132.144 223.745 132.144 223.087C132.144 222.5 131.958 222.028 131.586 221.671C131.229 221.299 130.75 221.113 130.149 221.113C129.605 221.113 129.069 221.242 128.54 221.499C128.025 221.742 127.553 222.078 127.124 222.507C126.695 222.922 126.351 223.394 126.094 223.924C125.836 224.453 125.708 224.996 125.708 225.554C126.037 225.726 126.451 225.84 126.952 225.897C127.453 225.94 128.011 225.962 128.626 225.962ZM139.519 231.562C139.161 231.562 138.896 231.447 138.725 231.218C138.553 230.989 138.439 230.703 138.382 230.36C138.339 230.017 138.317 229.681 138.317 229.352C138.317 229.194 138.317 229.044 138.317 228.901C138.331 228.758 138.339 228.637 138.339 228.536C138.339 227.507 138.36 226.47 138.403 225.425C138.446 224.367 138.467 223.215 138.467 221.971C137.938 221.971 137.502 221.993 137.159 222.035C136.815 222.078 136.472 222.1 136.129 222.1C135.9 222.1 135.743 222.057 135.657 221.971C135.571 221.885 135.528 221.742 135.528 221.542C135.528 221.313 135.557 221.149 135.614 221.049C135.685 220.934 135.771 220.863 135.871 220.834L137.974 220.405C138.289 220.333 138.51 220.19 138.639 219.976C138.782 219.761 138.882 219.554 138.939 219.354C138.968 219.239 138.982 219.132 138.982 219.032C138.997 218.917 139.011 218.796 139.025 218.667C139.025 218.553 139.025 218.445 139.025 218.345C139.039 218.231 139.047 218.123 139.047 218.023C139.075 217.566 139.147 217.229 139.261 217.015C139.39 216.8 139.633 216.693 139.991 216.693C140.32 216.693 140.513 216.822 140.57 217.079C140.641 217.337 140.677 217.58 140.677 217.809C140.677 217.966 140.663 218.209 140.634 218.538C140.62 218.853 140.606 219.168 140.591 219.482C140.577 219.797 140.563 220.026 140.549 220.169H143.981C144.11 220.169 144.239 220.255 144.368 220.426C144.496 220.598 144.561 220.82 144.561 221.091C144.561 221.177 144.525 221.292 144.453 221.435C144.382 221.563 144.296 221.628 144.196 221.628C144.053 221.628 143.781 221.635 143.381 221.649C142.994 221.649 142.572 221.656 142.115 221.671C141.671 221.685 141.278 221.699 140.935 221.714C140.591 221.728 140.398 221.749 140.355 221.778C140.284 222.636 140.227 223.466 140.184 224.267C140.155 225.053 140.141 225.819 140.141 226.562C140.141 227.049 140.148 227.521 140.162 227.979C140.191 228.422 140.212 228.865 140.227 229.309C140.227 229.38 140.234 229.488 140.248 229.631C140.262 229.774 140.27 229.931 140.27 230.103C140.27 230.432 140.22 230.761 140.119 231.09C140.034 231.404 139.833 231.562 139.519 231.562ZM149.932 231.562C149.574 231.562 149.31 231.447 149.138 231.218C148.967 230.989 148.852 230.703 148.795 230.36C148.752 230.017 148.73 229.681 148.73 229.352C148.73 229.194 148.73 229.044 148.73 228.901C148.745 228.758 148.752 228.637 148.752 228.536C148.752 227.507 148.773 226.47 148.816 225.425C148.859 224.367 148.881 223.215 148.881 221.971C148.351 221.971 147.915 221.993 147.572 222.035C147.229 222.078 146.885 222.1 146.542 222.1C146.313 222.1 146.156 222.057 146.07 221.971C145.984 221.885 145.941 221.742 145.941 221.542C145.941 221.313 145.97 221.149 146.027 221.049C146.099 220.934 146.184 220.863 146.285 220.834L148.387 220.405C148.702 220.333 148.924 220.19 149.052 219.976C149.195 219.761 149.295 219.554 149.353 219.354C149.381 219.239 149.396 219.132 149.396 219.032C149.41 218.917 149.424 218.796 149.439 218.667C149.439 218.553 149.439 218.445 149.439 218.345C149.453 218.231 149.46 218.123 149.46 218.023C149.489 217.566 149.56 217.229 149.675 217.015C149.803 216.8 150.046 216.693 150.404 216.693C150.733 216.693 150.926 216.822 150.983 217.079C151.055 217.337 151.091 217.58 151.091 217.809C151.091 217.966 151.076 218.209 151.048 218.538C151.033 218.853 151.019 219.168 151.005 219.482C150.99 219.797 150.976 220.026 150.962 220.169H154.395C154.523 220.169 154.652 220.255 154.781 220.426C154.91 220.598 154.974 220.82 154.974 221.091C154.974 221.177 154.938 221.292 154.867 221.435C154.795 221.563 154.709 221.628 154.609 221.628C154.466 221.628 154.194 221.635 153.794 221.649C153.408 221.649 152.986 221.656 152.528 221.671C152.085 221.685 151.691 221.699 151.348 221.714C151.005 221.728 150.812 221.749 150.769 221.778C150.697 222.636 150.64 223.466 150.597 224.267C150.568 225.053 150.554 225.819 150.554 226.562C150.554 227.049 150.561 227.521 150.576 227.979C150.604 228.422 150.626 228.865 150.64 229.309C150.64 229.38 150.647 229.488 150.661 229.631C150.676 229.774 150.683 229.931 150.683 230.103C150.683 230.432 150.633 230.761 150.533 231.09C150.447 231.404 150.247 231.562 149.932 231.562ZM159.787 236.754C159.745 236.754 159.68 236.697 159.594 236.582C159.509 236.468 159.466 236.296 159.466 236.067C159.466 235.867 159.487 235.667 159.53 235.466C159.587 235.266 159.659 235.066 159.745 234.866C159.845 234.651 159.945 234.437 160.045 234.222C160.145 234.007 160.245 233.793 160.345 233.578C160.431 233.364 160.531 233.092 160.646 232.763C160.774 232.434 160.896 232.098 161.01 231.755C161.125 231.426 161.218 231.14 161.289 230.896C161.375 230.653 161.418 230.517 161.418 230.489V229.931C160.531 229.931 159.795 229.766 159.208 229.437C158.622 229.109 158.157 228.672 157.814 228.129C157.47 227.585 157.22 226.984 157.063 226.326C156.905 225.654 156.798 224.975 156.741 224.288C156.698 223.587 156.676 222.937 156.676 222.336C156.676 222.05 156.684 221.771 156.698 221.499C156.712 221.227 156.748 220.956 156.805 220.684C156.877 220.355 156.963 220.14 157.063 220.04C157.177 219.926 157.284 219.868 157.384 219.868C157.713 219.868 157.942 219.997 158.071 220.255C158.214 220.498 158.286 220.855 158.286 221.327C158.286 221.656 158.264 221.971 158.221 222.271C158.178 222.558 158.157 222.872 158.157 223.215V223.43C158.157 223.559 158.178 223.809 158.221 224.181C158.278 224.539 158.336 224.903 158.393 225.275C158.45 225.647 158.493 225.926 158.522 226.112C158.593 226.427 158.7 226.763 158.843 227.12C158.986 227.464 159.187 227.757 159.444 228C159.716 228.243 160.059 228.365 160.474 228.365C161.032 228.365 161.525 228.164 161.954 227.764C162.398 227.349 162.798 226.82 163.156 226.176C163.528 225.518 163.864 224.832 164.164 224.117C164.279 223.873 164.386 223.63 164.486 223.387C164.586 223.144 164.686 222.908 164.787 222.679C164.901 222.45 165.008 222.236 165.108 222.035C165.209 221.835 165.316 221.642 165.43 221.456C165.659 221.084 165.866 220.82 166.052 220.662C166.253 220.505 166.446 220.426 166.632 220.426C166.818 220.426 166.954 220.476 167.039 220.576C167.139 220.677 167.19 220.848 167.19 221.091C167.19 221.535 167.111 221.971 166.954 222.4C166.81 222.829 166.625 223.258 166.396 223.687C166.153 224.131 165.895 224.567 165.623 224.996C165.352 225.425 165.116 225.854 164.915 226.284C164.801 226.541 164.644 226.891 164.443 227.335C164.257 227.764 164.057 228.215 163.843 228.687C163.642 229.144 163.463 229.552 163.306 229.91C163.163 230.267 163.077 230.489 163.049 230.575C163.034 230.646 162.977 230.811 162.877 231.068C162.777 231.311 162.662 231.604 162.534 231.948C162.419 232.291 162.298 232.634 162.169 232.978C162.04 233.335 161.926 233.636 161.826 233.879C161.74 234.136 161.683 234.301 161.654 234.372C161.568 234.63 161.447 234.944 161.289 235.316C161.132 235.688 160.932 236.017 160.689 236.303C160.46 236.604 160.159 236.754 159.787 236.754ZM178.576 237.183C178.333 237.183 178.176 237.054 178.104 236.797C178.033 236.553 177.997 236.282 177.997 235.981C177.997 235.867 177.997 235.745 177.997 235.617C178.011 235.502 178.019 235.395 178.019 235.295C178.019 233.836 178.083 232.441 178.212 231.111C178.34 229.766 178.433 228.465 178.491 227.206C178.505 226.877 178.519 226.47 178.533 225.983C178.548 225.497 178.555 225.032 178.555 224.589C178.569 224.145 178.569 223.823 178.555 223.623C178.283 223.623 178.069 223.523 177.911 223.323C177.754 223.123 177.675 222.929 177.675 222.743C177.675 222.6 177.74 222.414 177.868 222.186C178.011 221.942 178.219 221.771 178.491 221.671C178.519 221.599 178.533 221.528 178.533 221.456C178.533 221.37 178.533 221.277 178.533 221.177C178.533 220.863 178.505 220.512 178.448 220.126C178.405 219.725 178.369 219.432 178.34 219.246C178.326 219.16 178.412 219.067 178.598 218.967C178.784 218.867 178.97 218.817 179.156 218.817C179.413 218.817 179.592 218.903 179.692 219.075C179.792 219.246 179.857 219.461 179.885 219.718C179.914 219.976 179.95 220.233 179.992 220.491C180.636 220.233 181.158 220.04 181.559 219.911C181.959 219.783 182.338 219.697 182.696 219.654C183.053 219.611 183.482 219.59 183.983 219.59C184.913 219.59 185.757 219.74 186.515 220.04C187.287 220.34 187.902 220.791 188.36 221.392C188.818 221.978 189.047 222.715 189.047 223.602C189.047 224.446 188.868 225.289 188.51 226.133C188.167 226.977 187.688 227.75 187.073 228.451C186.472 229.137 185.778 229.688 184.991 230.103C184.205 230.517 183.375 230.725 182.503 230.725C182.274 230.725 182.052 230.703 181.838 230.66C181.623 230.603 181.401 230.56 181.172 230.532C181.087 230.517 181.001 230.51 180.915 230.51C180.829 230.496 180.751 230.489 180.679 230.489H179.971C179.971 230.818 179.971 231.275 179.971 231.862C179.971 232.448 179.957 233.071 179.928 233.729C179.914 234.387 179.885 235.002 179.842 235.574C179.814 236.017 179.678 236.396 179.435 236.711C179.206 237.025 178.92 237.183 178.576 237.183ZM182.395 229.287C183.111 229.287 183.776 229.123 184.391 228.794C185.02 228.451 185.571 228 186.043 227.442C186.529 226.884 186.901 226.284 187.158 225.64C187.43 224.982 187.566 224.338 187.566 223.709C187.566 223.022 187.394 222.479 187.051 222.078C186.708 221.664 186.272 221.37 185.742 221.199C185.228 221.013 184.684 220.92 184.112 220.92C183.826 220.92 183.525 220.934 183.211 220.963C182.896 220.977 182.596 221.049 182.31 221.177C181.68 221.449 181.194 221.749 180.851 222.078C180.522 222.393 180.3 222.772 180.186 223.215C180.128 223.416 180.093 223.623 180.078 223.838C180.064 224.052 180.057 224.274 180.057 224.503C180.057 224.732 180.064 224.975 180.078 225.232C180.093 225.49 180.1 225.762 180.1 226.048V227.828C180.1 228.157 180.228 228.436 180.486 228.665C180.743 228.88 181.051 229.037 181.408 229.137C181.766 229.237 182.095 229.287 182.395 229.287ZM191.56 231.347C191.402 231.347 191.281 231.275 191.195 231.132C191.124 230.989 191.073 230.825 191.045 230.639C191.016 230.453 190.988 230.296 190.959 230.167V228.472C190.959 227.614 190.995 226.734 191.066 225.833C191.152 224.932 191.195 224.052 191.195 223.194C191.195 222.779 191.166 222.364 191.109 221.95C191.066 221.535 191.016 221.184 190.959 220.898C190.945 220.827 190.93 220.762 190.916 220.705C190.916 220.648 190.916 220.591 190.916 220.534C190.916 220.348 190.973 220.226 191.088 220.169C191.202 220.112 191.395 220.083 191.667 220.083C191.996 220.083 192.239 220.226 192.397 220.512C192.554 220.798 192.668 221.134 192.74 221.521C192.826 221.892 192.904 222.229 192.976 222.529C193.391 222.028 193.841 221.664 194.328 221.435C194.814 221.206 195.222 221.006 195.55 220.834C195.865 220.677 196.18 220.555 196.495 220.469C196.823 220.369 197.188 220.319 197.589 220.319C197.989 220.319 198.361 220.433 198.704 220.662C199.062 220.877 199.241 221.113 199.241 221.37C199.241 221.671 199.148 221.892 198.962 222.035C198.776 222.178 198.561 222.25 198.318 222.25C198.247 222.25 198.175 222.243 198.104 222.229C198.046 222.2 197.982 222.178 197.911 222.164C197.81 222.121 197.696 222.086 197.567 222.057C197.453 222.028 197.338 222.014 197.224 222.014C196.781 222.014 196.351 222.1 195.937 222.271C195.522 222.429 195.171 222.586 194.885 222.743C194.385 223.015 193.991 223.323 193.705 223.666C193.434 223.995 193.205 224.303 193.019 224.589C192.919 225.132 192.854 225.661 192.826 226.176C192.797 226.691 192.776 227.092 192.761 227.378C192.747 227.678 192.733 227.993 192.718 228.322C192.704 228.651 192.683 228.98 192.654 229.309C192.625 229.652 192.583 229.981 192.525 230.296C192.468 230.61 192.368 230.868 192.225 231.068C192.082 231.254 191.86 231.347 191.56 231.347ZM205.276 231.454C204.189 231.454 203.202 231.297 202.315 230.982C201.442 230.653 200.749 230.146 200.234 229.459C199.719 228.758 199.461 227.857 199.461 226.756C199.461 225.883 199.604 225.032 199.89 224.202C200.191 223.373 200.613 222.622 201.156 221.95C201.7 221.277 202.351 220.748 203.109 220.362C203.867 219.961 204.711 219.761 205.64 219.761C206.284 219.761 206.863 219.883 207.378 220.126C207.907 220.369 208.329 220.712 208.644 221.156C208.959 221.599 209.116 222.128 209.116 222.743C209.116 223.401 208.973 224.031 208.687 224.632C208.415 225.218 208.043 225.74 207.571 226.198C207.099 226.655 206.563 227.02 205.962 227.292C205.376 227.549 204.761 227.678 204.117 227.678C203.559 227.678 203.037 227.635 202.551 227.549C202.064 227.449 201.614 227.299 201.199 227.099C201.199 227.642 201.328 228.107 201.585 228.493C201.843 228.865 202.172 229.173 202.572 229.416C202.973 229.645 203.388 229.817 203.817 229.931C204.26 230.031 204.668 230.081 205.04 230.081C205.34 230.081 205.64 230.067 205.941 230.038C206.241 229.995 206.57 229.974 206.928 229.974C207.457 229.974 207.721 230.203 207.721 230.66C207.721 231.018 207.471 231.247 206.971 231.347C206.699 231.404 206.42 231.433 206.134 231.433C205.848 231.447 205.562 231.454 205.276 231.454ZM204.117 225.962C204.618 225.962 205.14 225.862 205.683 225.661C206.227 225.461 206.684 225.146 207.056 224.717C207.443 224.288 207.636 223.745 207.636 223.087C207.636 222.5 207.45 222.028 207.078 221.671C206.72 221.299 206.241 221.113 205.64 221.113C205.097 221.113 204.56 221.242 204.031 221.499C203.516 221.742 203.044 222.078 202.615 222.507C202.186 222.922 201.843 223.394 201.585 223.924C201.328 224.453 201.199 224.996 201.199 225.554C201.528 225.726 201.943 225.84 202.443 225.897C202.944 225.94 203.502 225.962 204.117 225.962ZM215.01 231.562C214.652 231.562 214.388 231.447 214.216 231.218C214.045 230.989 213.93 230.703 213.873 230.36C213.83 230.017 213.809 229.681 213.809 229.352C213.809 229.194 213.809 229.044 213.809 228.901C213.823 228.758 213.83 228.637 213.83 228.536C213.83 227.507 213.851 226.47 213.894 225.425C213.937 224.367 213.959 223.215 213.959 221.971C213.43 221.971 212.993 221.993 212.65 222.035C212.307 222.078 211.963 222.1 211.62 222.1C211.391 222.1 211.234 222.057 211.148 221.971C211.062 221.885 211.019 221.742 211.019 221.542C211.019 221.313 211.048 221.149 211.105 221.049C211.177 220.934 211.263 220.863 211.363 220.834L213.465 220.405C213.78 220.333 214.002 220.19 214.13 219.976C214.273 219.761 214.374 219.554 214.431 219.354C214.459 219.239 214.474 219.132 214.474 219.032C214.488 218.917 214.502 218.796 214.517 218.667C214.517 218.553 214.517 218.445 214.517 218.345C214.531 218.231 214.538 218.123 214.538 218.023C214.567 217.566 214.638 217.229 214.753 217.015C214.881 216.8 215.124 216.693 215.482 216.693C215.811 216.693 216.004 216.822 216.061 217.079C216.133 217.337 216.169 217.58 216.169 217.809C216.169 217.966 216.154 218.209 216.126 218.538C216.111 218.853 216.097 219.168 216.083 219.482C216.068 219.797 216.054 220.026 216.04 220.169H219.473C219.601 220.169 219.73 220.255 219.859 220.426C219.988 220.598 220.052 220.82 220.052 221.091C220.052 221.177 220.016 221.292 219.945 221.435C219.873 221.563 219.787 221.628 219.687 221.628C219.544 221.628 219.272 221.635 218.872 221.649C218.486 221.649 218.064 221.656 217.606 221.671C217.163 221.685 216.769 221.699 216.426 221.714C216.083 221.728 215.89 221.749 215.847 221.778C215.775 222.636 215.718 223.466 215.675 224.267C215.647 225.053 215.632 225.819 215.632 226.562C215.632 227.049 215.639 227.521 215.654 227.979C215.682 228.422 215.704 228.865 215.718 229.309C215.718 229.38 215.725 229.488 215.74 229.631C215.754 229.774 215.761 229.931 215.761 230.103C215.761 230.432 215.711 230.761 215.611 231.09C215.525 231.404 215.325 231.562 215.01 231.562ZM225.423 231.562C225.066 231.562 224.801 231.447 224.63 231.218C224.458 230.989 224.343 230.703 224.286 230.36C224.243 230.017 224.222 229.681 224.222 229.352C224.222 229.194 224.222 229.044 224.222 228.901C224.236 228.758 224.243 228.637 224.243 228.536C224.243 227.507 224.265 226.47 224.308 225.425C224.351 224.367 224.372 223.215 224.372 221.971C223.843 221.971 223.407 221.993 223.063 222.035C222.72 222.078 222.377 222.1 222.033 222.1C221.805 222.1 221.647 222.057 221.561 221.971C221.476 221.885 221.433 221.742 221.433 221.542C221.433 221.313 221.461 221.149 221.519 221.049C221.59 220.934 221.676 220.863 221.776 220.834L223.879 220.405C224.193 220.333 224.415 220.19 224.544 219.976C224.687 219.761 224.787 219.554 224.844 219.354C224.873 219.239 224.887 219.132 224.887 219.032C224.901 218.917 224.916 218.796 224.93 218.667C224.93 218.553 224.93 218.445 224.93 218.345C224.944 218.231 224.951 218.123 224.951 218.023C224.98 217.566 225.051 217.229 225.166 217.015C225.295 216.8 225.538 216.693 225.895 216.693C226.224 216.693 226.417 216.822 226.475 217.079C226.546 217.337 226.582 217.58 226.582 217.809C226.582 217.966 226.568 218.209 226.539 218.538C226.525 218.853 226.51 219.168 226.496 219.482C226.482 219.797 226.468 220.026 226.453 220.169H229.886C230.015 220.169 230.144 220.255 230.272 220.426C230.401 220.598 230.465 220.82 230.465 221.091C230.465 221.177 230.43 221.292 230.358 221.435C230.287 221.563 230.201 221.628 230.101 221.628C229.958 221.628 229.686 221.635 229.285 221.649C228.899 221.649 228.477 221.656 228.019 221.671C227.576 221.685 227.183 221.699 226.839 221.714C226.496 221.728 226.303 221.749 226.26 221.778C226.189 222.636 226.131 223.466 226.088 224.267C226.06 225.053 226.046 225.819 226.046 226.562C226.046 227.049 226.053 227.521 226.067 227.979C226.096 228.422 226.117 228.865 226.131 229.309C226.131 229.38 226.139 229.488 226.153 229.631C226.167 229.774 226.174 229.931 226.174 230.103C226.174 230.432 226.124 230.761 226.024 231.09C225.938 231.404 225.738 231.562 225.423 231.562ZM235.279 236.754C235.236 236.754 235.172 236.697 235.086 236.582C235 236.468 234.957 236.296 234.957 236.067C234.957 235.867 234.978 235.667 235.021 235.466C235.079 235.266 235.15 235.066 235.236 234.866C235.336 234.651 235.436 234.437 235.536 234.222C235.636 234.007 235.737 233.793 235.837 233.578C235.923 233.364 236.023 233.092 236.137 232.763C236.266 232.434 236.387 232.098 236.502 231.755C236.616 231.426 236.709 231.14 236.781 230.896C236.867 230.653 236.909 230.517 236.909 230.489V229.931C236.023 229.931 235.286 229.766 234.7 229.437C234.113 229.109 233.648 228.672 233.305 228.129C232.962 227.585 232.711 226.984 232.554 226.326C232.397 225.654 232.289 224.975 232.232 224.288C232.189 223.587 232.168 222.937 232.168 222.336C232.168 222.05 232.175 221.771 232.189 221.499C232.204 221.227 232.239 220.956 232.297 220.684C232.368 220.355 232.454 220.14 232.554 220.04C232.668 219.926 232.776 219.868 232.876 219.868C233.205 219.868 233.434 219.997 233.562 220.255C233.705 220.498 233.777 220.855 233.777 221.327C233.777 221.656 233.756 221.971 233.713 222.271C233.67 222.558 233.648 222.872 233.648 223.215V223.43C233.648 223.559 233.67 223.809 233.713 224.181C233.77 224.539 233.827 224.903 233.884 225.275C233.941 225.647 233.984 225.926 234.013 226.112C234.085 226.427 234.192 226.763 234.335 227.12C234.478 227.464 234.678 227.757 234.936 228C235.207 228.243 235.551 228.365 235.965 228.365C236.523 228.365 237.017 228.164 237.446 227.764C237.889 227.349 238.29 226.82 238.647 226.176C239.019 225.518 239.355 224.832 239.656 224.117C239.77 223.873 239.877 223.63 239.978 223.387C240.078 223.144 240.178 222.908 240.278 222.679C240.392 222.45 240.5 222.236 240.6 222.035C240.7 221.835 240.807 221.642 240.922 221.456C241.15 221.084 241.358 220.82 241.544 220.662C241.744 220.505 241.937 220.426 242.123 220.426C242.309 220.426 242.445 220.476 242.531 220.576C242.631 220.677 242.681 220.848 242.681 221.091C242.681 221.535 242.602 221.971 242.445 222.4C242.302 222.829 242.116 223.258 241.887 223.687C241.644 224.131 241.386 224.567 241.115 224.996C240.843 225.425 240.607 225.854 240.407 226.284C240.292 226.541 240.135 226.891 239.935 227.335C239.749 227.764 239.548 228.215 239.334 228.687C239.134 229.144 238.955 229.552 238.798 229.91C238.654 230.267 238.569 230.489 238.54 230.575C238.526 230.646 238.469 230.811 238.368 231.068C238.268 231.311 238.154 231.604 238.025 231.948C237.911 232.291 237.789 232.634 237.66 232.978C237.532 233.335 237.417 233.636 237.317 233.879C237.231 234.136 237.174 234.301 237.145 234.372C237.06 234.63 236.938 234.944 236.781 235.316C236.623 235.688 236.423 236.017 236.18 236.303C235.951 236.604 235.651 236.754 235.279 236.754Z" fill="#77520D"/>
<path d="M34.96 53.33C34.2267 53.1393 33.6107 52.8167 33.112 52.362C32.628 51.8927 32.2613 51.3427 32.012 50.712C31.7773 50.0813 31.66 49.4213 31.66 48.732C31.66 47.7787 31.8653 46.862 32.276 45.982C32.6867 45.0873 33.2367 44.2953 33.926 43.606C34.63 42.902 35.422 42.3447 36.302 41.934C37.1967 41.5233 38.1207 41.318 39.074 41.318C39.4113 41.318 39.734 41.3693 40.042 41.472C40.3647 41.56 40.6873 41.6113 41.01 41.626L41.098 41.34C41.1127 41.076 41.1347 40.746 41.164 40.35C41.1933 39.954 41.23 39.5433 41.274 39.118C41.3327 38.678 41.3913 38.26 41.45 37.864C41.5233 37.468 41.604 37.1527 41.692 36.918C41.8093 36.5807 41.978 36.2947 42.198 36.06C42.418 35.8107 42.7113 35.686 43.078 35.686C43.4447 35.686 43.6793 35.8033 43.782 36.038C43.8993 36.2727 43.958 36.566 43.958 36.918V37.468C43.7527 39.1547 43.5913 40.8193 43.474 42.462C43.3713 44.09 43.32 45.718 43.32 47.346C43.32 48.094 43.3567 48.8273 43.43 49.546C43.5033 50.25 43.54 50.9907 43.54 51.768C43.54 52.0467 43.496 52.3253 43.408 52.604C43.3347 52.868 43.1147 53 42.748 53C42.3667 53 42.0733 52.8973 41.868 52.692C41.6627 52.472 41.516 52.2007 41.428 51.878C41.34 51.5553 41.2667 51.2473 41.208 50.954C41.1787 50.734 41.1493 50.624 41.12 50.624H41.032C40.2693 51.46 39.4847 52.12 38.678 52.604C37.886 53.088 36.9693 53.33 35.928 53.33H34.96ZM35.796 51.086C36.368 51.086 36.918 50.932 37.446 50.624C37.974 50.316 38.4433 49.9127 38.854 49.414C39.2793 48.9153 39.6093 48.38 39.844 47.808C40.0933 47.2213 40.218 46.664 40.218 46.136C40.218 46.004 40.1887 45.806 40.13 45.542C40.0713 45.278 39.998 44.9993 39.91 44.706C39.822 44.4127 39.7267 44.1707 39.624 43.98C39.536 43.7747 39.4553 43.672 39.382 43.672C38.678 43.672 38.0107 43.8187 37.38 44.112C36.7493 44.3907 36.1847 44.772 35.686 45.256C35.202 45.74 34.8133 46.29 34.52 46.906C34.2413 47.522 34.102 48.1673 34.102 48.842V49.722C34.2193 50.1473 34.4173 50.4847 34.696 50.734C34.9747 50.9687 35.3413 51.086 35.796 51.086ZM52.3711 53C51.3151 53 50.3324 52.7727 49.4231 52.318C48.5138 51.8633 47.7804 51.218 47.2231 50.382C46.6658 49.546 46.3871 48.5707 46.3871 47.456C46.3871 46.6933 46.5411 45.9893 46.8491 45.344C47.1718 44.684 47.5751 44.068 48.0591 43.496C48.5578 42.924 49.0564 42.3887 49.5551 41.89C49.8191 41.626 50.1344 41.4353 50.5011 41.318C50.8678 41.186 51.2418 41.12 51.6231 41.12C52.5764 41.12 53.4931 41.2227 54.3731 41.428C55.2531 41.6333 56.0378 41.9707 56.7271 42.44C57.4311 42.8947 57.9884 43.5033 58.3991 44.266C58.8098 45.014 59.0151 45.9307 59.0151 47.016C59.0151 47.9107 58.8244 48.7247 58.4431 49.458C58.0618 50.1913 57.5484 50.822 56.9031 51.35C56.2724 51.878 55.5611 52.2887 54.7691 52.582C53.9918 52.8607 53.1924 53 52.3711 53ZM51.9311 50.558C52.7378 50.558 53.5004 50.4187 54.2191 50.14C54.9378 49.8467 55.5244 49.414 55.9791 48.842C56.4484 48.2553 56.6831 47.5367 56.6831 46.686C56.6831 45.938 56.4631 45.3147 56.0231 44.816C55.5978 44.3173 55.0551 43.9507 54.3951 43.716C53.7351 43.4667 53.0604 43.342 52.3711 43.342C52.0191 43.342 51.7331 43.3933 51.5131 43.496C51.2931 43.5987 51.0951 43.738 50.9191 43.914C50.7431 44.09 50.5378 44.2953 50.3031 44.53C49.8924 44.9553 49.5258 45.4247 49.2031 45.938C48.8804 46.4367 48.7191 47.0087 48.7191 47.654C48.7191 48.6807 49.0271 49.4213 49.6431 49.876C50.2591 50.3307 51.0218 50.558 51.9311 50.558ZM63.0353 52.56C62.6686 52.56 62.3973 52.4573 62.2213 52.252C62.0453 52.032 61.9353 51.768 61.8913 51.46C61.8473 51.1373 61.8253 50.8293 61.8253 50.536C61.8253 49.8613 61.8399 49.1867 61.8693 48.512C61.9133 47.8373 61.9353 47.192 61.9353 46.576C61.9353 45.916 61.8619 45.2853 61.7153 44.684C61.5686 44.0827 61.4953 43.4813 61.4953 42.88V42.022C61.6273 41.714 61.7666 41.5087 61.9133 41.406C62.0599 41.2887 62.2579 41.23 62.5073 41.23C62.9619 41.23 63.2919 41.3767 63.4973 41.67C63.7026 41.9487 63.8346 42.286 63.8933 42.682C63.9666 43.0633 64.0179 43.4153 64.0473 43.738C64.0619 43.8993 64.0913 44.2147 64.1353 44.684C64.1939 45.1533 64.2306 45.5933 64.2453 46.004H64.3333L64.4213 45.916C64.6999 45.5053 64.9933 45.0653 65.3013 44.596C65.6093 44.1267 65.9466 43.6867 66.3133 43.276C66.6946 42.8653 67.1126 42.5353 67.5673 42.286C68.0219 42.022 68.5353 41.89 69.1073 41.89C69.8406 41.89 70.4639 42.1027 70.9773 42.528C71.4906 42.9387 71.9233 43.4813 72.2753 44.156C72.6273 44.816 72.9133 45.5347 73.1333 46.312C73.3533 47.0893 73.5293 47.8447 73.6613 48.578C73.7933 49.3113 73.9106 49.942 74.0133 50.47V51.02C74.0133 51.3427 73.9253 51.6653 73.7493 51.988C73.5733 52.296 73.2946 52.45 72.9133 52.45C72.5173 52.45 72.2239 52.3473 72.0333 52.142C71.8573 51.9367 71.7399 51.6727 71.6813 51.35C71.6519 51.218 71.6153 51.0053 71.5713 50.712C71.5273 50.404 71.4759 50.074 71.4173 49.722C71.3586 49.3553 71.3073 49.018 71.2633 48.71C71.2193 48.3873 71.1826 48.1527 71.1533 48.006C71.1093 47.7127 71.0066 47.368 70.8453 46.972C70.6986 46.5613 70.5593 46.2093 70.4273 45.916C70.2953 45.608 70.1266 45.2853 69.9213 44.948C69.7159 44.6107 69.4153 44.442 69.0193 44.442C68.6673 44.442 68.3446 44.5667 68.0513 44.816C67.7726 45.0653 67.5233 45.3587 67.3033 45.696C67.0979 46.0333 66.9146 46.334 66.7533 46.598C66.3866 47.1847 66.0566 47.7713 65.7633 48.358C65.4699 48.9447 65.1546 49.5827 64.8173 50.272C64.6853 50.5507 64.5606 50.8733 64.4433 51.24C64.3259 51.592 64.1646 51.9 63.9593 52.164C63.7539 52.428 63.4459 52.56 63.0353 52.56ZM76.1655 41.252C75.9748 41.252 75.8062 41.1787 75.6595 41.032C75.5275 40.8707 75.4615 40.6947 75.4615 40.504C75.4615 40.4013 75.4835 40.306 75.5275 40.218C75.5568 40.1593 75.5862 40.1007 75.6155 40.042C75.6448 39.9833 75.6742 39.91 75.7035 39.822C75.8795 39.5873 76.0482 39.3453 76.2095 39.096C76.3708 38.832 76.5028 38.5607 76.6055 38.282C76.6788 38.0767 76.7595 37.8567 76.8475 37.622C76.9355 37.3873 77.0528 37.1893 77.1995 37.028C77.3462 36.852 77.5368 36.764 77.7715 36.764C78.0208 36.764 78.2262 36.8667 78.3875 37.072C78.5488 37.2627 78.6295 37.5047 78.6295 37.798C78.6295 38.106 78.5488 38.458 78.3875 38.854C78.2262 39.25 78.0208 39.6313 77.7715 39.998C77.5222 40.35 77.2508 40.6507 76.9575 40.9C76.6788 41.1347 76.4148 41.252 76.1655 41.252ZM84.8474 53.44C84.3927 53.44 84.0554 53.3007 83.8354 53.022C83.6154 52.7433 83.4687 52.406 83.3954 52.01C83.3367 51.5993 83.3074 51.2253 83.3074 50.888V50.052C83.3074 49.128 83.3221 48.1967 83.3514 47.258C83.3954 46.3193 83.4247 45.3073 83.4394 44.222C83.0727 44.2367 82.7574 44.2587 82.4934 44.288C82.2441 44.3173 81.9874 44.332 81.7234 44.332C81.0487 44.332 80.7114 44.002 80.7114 43.342C80.7114 43.0927 80.7554 42.858 80.8434 42.638C80.9314 42.4033 81.1147 42.2567 81.3934 42.198L83.3294 41.758C83.5787 41.6993 83.7401 41.5453 83.8134 41.296C83.9014 41.032 83.9454 40.7313 83.9454 40.394C83.9601 40.042 83.9821 39.6973 84.0114 39.36C84.0554 39.0227 84.1654 38.744 84.3414 38.524C84.5321 38.304 84.8474 38.194 85.2874 38.194C85.5954 38.194 85.8227 38.282 85.9694 38.458C86.1307 38.6193 86.2407 38.8173 86.2994 39.052C86.3581 39.2867 86.3874 39.514 86.3874 39.734C86.3874 39.7633 86.3801 39.866 86.3654 40.042C86.3507 40.2033 86.3287 40.3647 86.2994 40.526C86.2847 40.6873 86.2774 40.79 86.2774 40.834V41.538H88.9614C89.2841 41.538 89.5334 41.692 89.7094 42C89.8854 42.2933 89.9734 42.594 89.9734 42.902C89.9734 42.9607 89.9514 43.0707 89.9074 43.232C89.8634 43.3933 89.7827 43.5473 89.6654 43.694C89.5481 43.826 89.3867 43.892 89.1814 43.892H86.3654C86.3507 43.892 86.3214 43.9067 86.2774 43.936C86.2334 43.9507 86.1821 43.9947 86.1234 44.068L86.0794 44.134C86.0061 44.53 85.9547 44.8527 85.9254 45.102C85.8961 45.3367 85.8741 45.5567 85.8594 45.762C85.8594 45.9527 85.8594 46.1873 85.8594 46.466C85.8594 47.2727 85.8741 48.0793 85.9034 48.886C85.9474 49.6927 85.9694 50.5433 85.9694 51.438C85.9694 51.7313 85.9474 52.032 85.9034 52.34C85.8594 52.648 85.7567 52.9047 85.5954 53.11C85.4341 53.33 85.1847 53.44 84.8474 53.44ZM103.459 53.88C103.151 53.88 102.872 53.7407 102.623 53.462C102.388 53.1833 102.271 52.8753 102.271 52.538V50.69C102.271 49.8247 102.286 48.9813 102.315 48.16C102.359 47.324 102.381 46.4733 102.381 45.608C102.381 45.564 102.366 45.4613 102.337 45.3C102.322 45.1387 102.308 44.9627 102.293 44.772H102.161C102.014 44.772 101.853 44.794 101.677 44.838C101.516 44.8673 101.354 44.882 101.193 44.882C100.826 44.882 100.533 44.7793 100.313 44.574C100.093 44.354 99.9829 44.0533 99.9829 43.672C99.9829 43.32 100.064 43.0707 100.225 42.924C100.401 42.7773 100.614 42.682 100.863 42.638C101.127 42.594 101.391 42.5573 101.655 42.528C101.934 42.484 102.168 42.396 102.359 42.264C102.55 42.132 102.667 41.9047 102.711 41.582C102.872 40.878 103.041 40.2107 103.217 39.58C103.408 38.9493 103.657 38.392 103.965 37.908C104.273 37.424 104.691 37.0427 105.219 36.764C105.747 36.4853 106.436 36.346 107.287 36.346C107.478 36.346 107.734 36.3753 108.057 36.434C108.394 36.478 108.732 36.5587 109.069 36.676C109.421 36.7933 109.714 36.9547 109.949 37.16C110.198 37.3507 110.323 37.6 110.323 37.908C110.323 38.2453 110.206 38.5387 109.971 38.788C109.751 39.0227 109.502 39.14 109.223 39.14C108.856 39.14 108.512 39.0667 108.189 38.92C107.866 38.7733 107.522 38.7 107.155 38.7C106.642 38.7 106.246 38.876 105.967 39.228C105.703 39.5653 105.52 39.998 105.417 40.526C105.314 41.0393 105.256 41.56 105.241 42.088H107.397C107.646 42.088 107.866 42.22 108.057 42.484C108.262 42.7333 108.365 42.9827 108.365 43.232C108.365 43.5253 108.284 43.7453 108.123 43.892C107.962 44.0387 107.764 44.1413 107.529 44.2C107.294 44.244 107.067 44.288 106.847 44.332C106.715 44.332 106.517 44.354 106.253 44.398C105.989 44.4273 105.718 44.4567 105.439 44.486C105.175 44.5153 104.962 44.5373 104.801 44.552C104.713 44.6107 104.64 44.816 104.581 45.168C104.537 45.5053 104.5 45.9087 104.471 46.378C104.456 46.8473 104.449 47.3167 104.449 47.786C104.449 48.1673 104.449 48.5193 104.449 48.842C104.464 49.1647 104.471 49.3847 104.471 49.502C104.471 49.942 104.486 50.3747 104.515 50.8C104.559 51.2253 104.581 51.6287 104.581 52.01C104.581 52.274 104.559 52.5527 104.515 52.846C104.486 53.1247 104.39 53.3667 104.229 53.572C104.082 53.7773 103.826 53.88 103.459 53.88ZM116.094 53C115.038 53 114.055 52.7727 113.146 52.318C112.236 51.8633 111.503 51.218 110.946 50.382C110.388 49.546 110.11 48.5707 110.11 47.456C110.11 46.6933 110.264 45.9893 110.572 45.344C110.894 44.684 111.298 44.068 111.782 43.496C112.28 42.924 112.779 42.3887 113.278 41.89C113.542 41.626 113.857 41.4353 114.224 41.318C114.59 41.186 114.964 41.12 115.346 41.12C116.299 41.12 117.216 41.2227 118.096 41.428C118.976 41.6333 119.76 41.9707 120.45 42.44C121.154 42.8947 121.711 43.5033 122.122 44.266C122.532 45.014 122.738 45.9307 122.738 47.016C122.738 47.9107 122.547 48.7247 122.166 49.458C121.784 50.1913 121.271 50.822 120.626 51.35C119.995 51.878 119.284 52.2887 118.492 52.582C117.714 52.8607 116.915 53 116.094 53ZM115.654 50.558C116.46 50.558 117.223 50.4187 117.942 50.14C118.66 49.8467 119.247 49.414 119.702 48.842C120.171 48.2553 120.406 47.5367 120.406 46.686C120.406 45.938 120.186 45.3147 119.746 44.816C119.32 44.3173 118.778 43.9507 118.118 43.716C117.458 43.4667 116.783 43.342 116.094 43.342C115.742 43.342 115.456 43.3933 115.236 43.496C115.016 43.5987 114.818 43.738 114.642 43.914C114.466 44.09 114.26 44.2953 114.026 44.53C113.615 44.9553 113.248 45.4247 112.926 45.938C112.603 46.4367 112.442 47.0087 112.442 47.654C112.442 48.6807 112.75 49.4213 113.366 49.876C113.982 50.3307 114.744 50.558 115.654 50.558ZM126.208 53.22C125.944 53.22 125.746 53.132 125.614 52.956C125.482 52.78 125.394 52.5747 125.35 52.34C125.306 52.0907 125.262 51.8707 125.218 51.68V50.052C125.218 49.2307 125.255 48.402 125.328 47.566C125.401 46.7153 125.438 45.8867 125.438 45.08C125.438 44.6987 125.401 44.332 125.328 43.98C125.255 43.628 125.218 43.2687 125.218 42.902V42.308C125.335 42.088 125.489 41.9267 125.68 41.824C125.885 41.7213 126.098 41.67 126.318 41.67C126.641 41.67 126.883 41.7653 127.044 41.956C127.205 42.132 127.315 42.3447 127.374 42.594C127.447 42.8433 127.513 43.0707 127.572 43.276C127.631 43.4667 127.726 43.5767 127.858 43.606C128.283 43.3273 128.687 43.056 129.068 42.792C129.464 42.528 129.875 42.3153 130.3 42.154C130.74 41.978 131.224 41.89 131.752 41.89C132.016 41.89 132.295 41.9487 132.588 42.066C132.896 42.1833 133.16 42.352 133.38 42.572C133.6 42.7773 133.71 43.034 133.71 43.342C133.71 43.7233 133.556 44.002 133.248 44.178C132.955 44.354 132.676 44.442 132.412 44.442C132.236 44.442 132.067 44.4053 131.906 44.332C131.745 44.2587 131.576 44.222 131.4 44.222C130.887 44.222 130.403 44.354 129.948 44.618C129.508 44.8673 129.119 45.168 128.782 45.52C128.445 45.872 128.173 46.202 127.968 46.51C127.909 46.642 127.865 46.862 127.836 47.17C127.807 47.478 127.785 47.83 127.77 48.226C127.755 48.6073 127.741 48.9813 127.726 49.348C127.726 49.7147 127.719 50.03 127.704 50.294C127.689 50.778 127.638 51.2473 127.55 51.702C127.477 52.142 127.337 52.5087 127.132 52.802C126.927 53.0807 126.619 53.22 126.208 53.22ZM138.292 59.204C137.867 59.0573 137.456 58.8593 137.06 58.61C136.679 58.3753 136.363 58.0967 136.114 57.774C135.879 57.466 135.762 57.1287 135.762 56.762C135.762 56.4247 135.879 56.1753 136.114 56.014C136.363 55.8527 136.627 55.772 136.906 55.772C137.229 55.772 137.493 55.8673 137.698 56.058C137.918 56.2633 138.145 56.4613 138.38 56.652C138.629 56.8573 138.93 56.96 139.282 56.96C139.707 56.96 140.081 56.8207 140.404 56.542C140.727 56.2633 140.998 55.904 141.218 55.464C141.438 55.024 141.607 54.5547 141.724 54.056C141.856 53.5573 141.929 53.088 141.944 52.648C141.959 52.5453 141.981 52.3253 142.01 51.988C142.039 51.636 142.069 51.2693 142.098 50.888C142.142 50.5067 142.164 50.228 142.164 50.052V49.832C142.164 49.7147 142.135 49.656 142.076 49.656H141.988C141.548 50.1693 141.093 50.6973 140.624 51.24C140.169 51.7827 139.656 52.2373 139.084 52.604C138.512 52.956 137.852 53.132 137.104 53.132C136.532 53.132 135.997 52.9853 135.498 52.692C134.999 52.3987 134.596 52.0027 134.288 51.504C133.98 51.0053 133.826 50.448 133.826 49.832C133.826 48.82 134.024 47.8153 134.42 46.818C134.816 45.806 135.366 44.8893 136.07 44.068C136.774 43.2467 137.588 42.5867 138.512 42.088C139.451 41.5893 140.463 41.34 141.548 41.34C141.841 41.34 142.149 41.3913 142.472 41.494C142.795 41.5967 143.066 41.7653 143.286 42C143.521 42.22 143.638 42.5207 143.638 42.902C143.638 43.2393 143.513 43.5107 143.264 43.716C143.029 43.9213 142.743 44.024 142.406 44.024C142.171 44.024 141.937 43.9873 141.702 43.914C141.482 43.8407 141.255 43.804 141.02 43.804H140.58C139.773 44.0387 139.04 44.4567 138.38 45.058C137.735 45.6447 137.221 46.334 136.84 47.126C136.459 47.9033 136.268 48.6953 136.268 49.502V50.25C136.385 50.6753 136.627 50.888 136.994 50.888C137.331 50.888 137.669 50.7633 138.006 50.514C138.343 50.2647 138.673 49.9567 138.996 49.59C139.319 49.2087 139.619 48.8347 139.898 48.468C140.177 48.0867 140.433 47.7713 140.668 47.522C140.888 47.1407 141.137 46.7813 141.416 46.444C141.695 46.092 141.951 45.7253 142.186 45.344C142.347 45.1387 142.501 44.9993 142.648 44.926C142.795 44.8527 142.971 44.816 143.176 44.816C143.543 44.816 143.807 44.9187 143.968 45.124C144.144 45.3147 144.269 45.5567 144.342 45.85C144.415 46.1433 144.467 46.422 144.496 46.686V48.336C144.496 48.9373 144.474 49.6193 144.43 50.382C144.401 51.1447 144.327 51.9367 144.21 52.758C144.107 53.5647 143.939 54.3493 143.704 55.112C143.469 55.8747 143.154 56.564 142.758 57.18C142.377 57.796 141.893 58.2873 141.306 58.654C140.719 59.0207 140.008 59.204 139.172 59.204H138.292ZM152.658 53.33C151.602 53.33 150.626 53.1687 149.732 52.846C148.852 52.5087 148.14 51.9807 147.598 51.262C147.055 50.5287 146.784 49.5827 146.784 48.424C146.784 47.544 146.923 46.686 147.202 45.85C147.495 45.014 147.913 44.2587 148.456 43.584C148.998 42.8947 149.651 42.352 150.414 41.956C151.176 41.5453 152.034 41.34 152.988 41.34C153.633 41.34 154.234 41.472 154.792 41.736C155.364 41.9853 155.818 42.3593 156.156 42.858C156.508 43.342 156.684 43.936 156.684 44.64C156.684 45.3147 156.544 45.96 156.266 46.576C155.987 47.192 155.606 47.742 155.122 48.226C154.638 48.71 154.088 49.0913 153.472 49.37C152.87 49.634 152.24 49.766 151.58 49.766C151.477 49.766 151.25 49.744 150.898 49.7C150.546 49.6413 150.267 49.5827 150.062 49.524C149.915 49.4947 149.798 49.436 149.71 49.348C149.68 49.3333 149.629 49.3113 149.556 49.282C149.482 49.238 149.431 49.216 149.402 49.216C149.504 49.6413 149.717 50.0007 150.04 50.294C150.377 50.5727 150.758 50.778 151.184 50.91C151.624 51.042 152.042 51.108 152.438 51.108C152.716 51.108 152.995 51.0933 153.274 51.064C153.567 51.02 153.875 50.998 154.198 50.998C154.52 50.998 154.799 51.086 155.034 51.262C155.268 51.438 155.386 51.724 155.386 52.12C155.386 52.4427 155.283 52.692 155.078 52.868C154.887 53.044 154.638 53.1613 154.33 53.22C154.036 53.2787 153.736 53.308 153.428 53.308C153.134 53.3227 152.878 53.33 152.658 53.33ZM151.58 47.214C152.02 47.214 152.452 47.1333 152.878 46.972C153.318 46.796 153.677 46.5393 153.956 46.202C154.249 45.8647 154.396 45.4467 154.396 44.948C154.396 44.5227 154.264 44.1853 154 43.936C153.75 43.6867 153.413 43.562 152.988 43.562C152.606 43.562 152.203 43.6647 151.778 43.87C151.352 44.0753 150.949 44.3393 150.568 44.662C150.201 44.9847 149.9 45.3367 149.666 45.718C149.431 46.0847 149.314 46.444 149.314 46.796V46.884C149.695 46.9427 150.076 47.016 150.458 47.104C150.839 47.1773 151.213 47.214 151.58 47.214ZM162.771 53.44C162.317 53.44 161.979 53.3007 161.759 53.022C161.539 52.7433 161.393 52.406 161.319 52.01C161.261 51.5993 161.231 51.2253 161.231 50.888V50.052C161.231 49.128 161.246 48.1967 161.275 47.258C161.319 46.3193 161.349 45.3073 161.363 44.222C160.997 44.2367 160.681 44.2587 160.417 44.288C160.168 44.3173 159.911 44.332 159.647 44.332C158.973 44.332 158.635 44.002 158.635 43.342C158.635 43.0927 158.679 42.858 158.767 42.638C158.855 42.4033 159.039 42.2567 159.317 42.198L161.253 41.758C161.503 41.6993 161.664 41.5453 161.737 41.296C161.825 41.032 161.869 40.7313 161.869 40.394C161.884 40.042 161.906 39.6973 161.935 39.36C161.979 39.0227 162.089 38.744 162.265 38.524C162.456 38.304 162.771 38.194 163.211 38.194C163.519 38.194 163.747 38.282 163.893 38.458C164.055 38.6193 164.165 38.8173 164.223 39.052C164.282 39.2867 164.311 39.514 164.311 39.734C164.311 39.7633 164.304 39.866 164.289 40.042C164.275 40.2033 164.253 40.3647 164.223 40.526C164.209 40.6873 164.201 40.79 164.201 40.834V41.538H166.885C167.208 41.538 167.457 41.692 167.633 42C167.809 42.2933 167.897 42.594 167.897 42.902C167.897 42.9607 167.875 43.0707 167.831 43.232C167.787 43.3933 167.707 43.5473 167.589 43.694C167.472 43.826 167.311 43.892 167.105 43.892H164.289C164.275 43.892 164.245 43.9067 164.201 43.936C164.157 43.9507 164.106 43.9947 164.047 44.068L164.003 44.134C163.93 44.53 163.879 44.8527 163.849 45.102C163.82 45.3367 163.798 45.5567 163.783 45.762C163.783 45.9527 163.783 46.1873 163.783 46.466C163.783 47.2727 163.798 48.0793 163.827 48.886C163.871 49.6927 163.893 50.5433 163.893 51.438C163.893 51.7313 163.871 52.032 163.827 52.34C163.783 52.648 163.681 52.9047 163.519 53.11C163.358 53.33 163.109 53.44 162.771 53.44ZM36.236 86.22C35.5613 86.22 34.9307 86.066 34.344 85.758C33.7573 85.45 33.266 85.0393 32.87 84.526C32.474 83.998 32.2173 83.404 32.1 82.744V81.622C32.1 80.8007 32.2467 79.972 32.54 79.136C32.8333 78.3 33.2513 77.53 33.794 76.826C34.3367 76.1073 34.982 75.5353 35.73 75.11C36.478 74.67 37.2993 74.45 38.194 74.45C38.5607 74.45 38.876 74.516 39.14 74.648C39.4187 74.78 39.668 74.9193 39.888 75.066C40.1227 75.198 40.35 75.2787 40.57 75.308C40.6873 74.7067 40.8487 74.3107 41.054 74.12C41.2593 73.9147 41.538 73.812 41.89 73.812C42.3153 73.812 42.6013 73.9513 42.748 74.23C42.9093 74.494 42.99 74.8313 42.99 75.242C42.99 76.0487 42.968 76.8407 42.924 77.618C42.8947 78.3953 42.88 79.1947 42.88 80.016C42.88 80.6613 42.9167 81.3287 42.99 82.018C43.0633 82.7073 43.1 83.3747 43.1 84.02V84.482C43.1 84.8047 43.034 85.1053 42.902 85.384C42.7847 85.648 42.5133 85.78 42.088 85.78C41.692 85.78 41.406 85.6627 41.23 85.428C41.0687 85.1787 40.9587 84.8853 40.9 84.548C40.856 84.196 40.812 83.8807 40.768 83.602L40.68 83.514C40.1813 84.0127 39.734 84.4673 39.338 84.878C38.9567 85.2887 38.5313 85.6187 38.062 85.868C37.5927 86.1027 36.984 86.22 36.236 86.22ZM36.016 83.998C36.5293 83.998 37.0133 83.844 37.468 83.536C37.9373 83.2133 38.3553 82.8027 38.722 82.304C39.0887 81.7907 39.3747 81.2553 39.58 80.698C39.7853 80.1407 39.888 79.62 39.888 79.136C39.888 78.7693 39.8367 78.4027 39.734 78.036C39.6313 77.6547 39.4553 77.332 39.206 77.068C38.9713 76.804 38.634 76.672 38.194 76.672C37.71 76.672 37.2333 76.8407 36.764 77.178C36.3093 77.5153 35.8987 77.948 35.532 78.476C35.1653 78.9893 34.872 79.532 34.652 80.104C34.432 80.6613 34.322 81.1673 34.322 81.622C34.322 81.9887 34.3733 82.3553 34.476 82.722C34.5933 83.0887 34.7767 83.3967 35.026 83.646C35.2753 83.8807 35.6053 83.998 36.016 83.998ZM50.3903 85.78C50.1116 85.78 49.8916 85.78 49.7303 85.78C49.5836 85.7653 49.4003 85.7287 49.1803 85.67C49.0776 85.6113 48.9383 85.5453 48.7623 85.472C48.5863 85.384 48.4176 85.3033 48.2563 85.23C48.0949 85.1567 47.9776 85.12 47.9043 85.12C47.8016 85.12 47.6403 85.2153 47.4203 85.406C47.2149 85.582 46.9803 85.67 46.7163 85.67C46.3349 85.67 46.0709 85.538 45.9243 85.274C45.7776 84.9953 45.7043 84.68 45.7043 84.328C45.7043 84.0053 45.7189 83.7193 45.7483 83.47C45.7776 83.206 45.8363 82.9127 45.9243 82.59C46.1443 80.9767 46.3129 79.3193 46.4303 77.618C46.5623 75.902 46.6283 74.2007 46.6283 72.514C46.6283 72.0887 46.6283 71.6707 46.6283 71.26C46.6283 70.8493 46.6136 70.4387 46.5843 70.028C46.5696 69.7347 46.6576 69.5293 46.8483 69.412C47.0389 69.2947 47.2516 69.236 47.4863 69.236H47.6843C48.0069 69.236 48.2783 69.3167 48.4983 69.478C48.7183 69.6393 48.8576 69.9253 48.9163 70.336V71.524C48.9163 72.3747 48.9016 73.2253 48.8723 74.076C48.8429 74.9267 48.8209 75.836 48.8063 76.804H48.8723C49.4736 76.1147 50.1409 75.528 50.8742 75.044C51.6076 74.56 52.4216 74.318 53.3163 74.318C54.0056 74.318 54.6729 74.4793 55.3183 74.802C55.9783 75.11 56.5209 75.55 56.9463 76.122C57.3716 76.6793 57.5843 77.3247 57.5843 78.058C57.5843 79.0407 57.4009 79.994 57.0343 80.918C56.6676 81.8273 56.1543 82.6487 55.4943 83.382C54.8343 84.1153 54.0716 84.702 53.2063 85.142C52.3409 85.5673 51.4023 85.78 50.3903 85.78ZM50.3903 83.426C50.9623 83.426 51.5416 83.2867 52.1283 83.008C52.7149 82.7293 53.2503 82.3553 53.7343 81.886C54.2183 81.4167 54.6069 80.896 54.9003 80.324C55.2083 79.752 55.3623 79.1727 55.3623 78.586C55.3623 78.1167 55.1936 77.684 54.8563 77.288C54.5336 76.8773 54.1229 76.672 53.6243 76.672C53.0963 76.672 52.6123 76.7967 52.1723 77.046C51.7469 77.2953 51.3509 77.618 50.9843 78.014C50.6323 78.3953 50.3096 78.8133 50.0163 79.268C49.7229 79.7227 49.4516 80.148 49.2023 80.544C49.0996 80.7787 48.9676 81.0427 48.8063 81.336C48.6596 81.6293 48.5863 81.908 48.5863 82.172C48.5863 82.436 48.6889 82.6633 48.8943 82.854C49.0996 83.0447 49.3416 83.1913 49.6203 83.294C49.9136 83.382 50.1703 83.426 50.3903 83.426ZM65.4336 86C64.3776 86 63.3949 85.7727 62.4856 85.318C61.5763 84.8633 60.8429 84.218 60.2856 83.382C59.7283 82.546 59.4496 81.5707 59.4496 80.456C59.4496 79.6933 59.6036 78.9893 59.9116 78.344C60.2343 77.684 60.6376 77.068 61.1216 76.496C61.6203 75.924 62.1189 75.3887 62.6176 74.89C62.8816 74.626 63.1969 74.4353 63.5636 74.318C63.9303 74.186 64.3043 74.12 64.6856 74.12C65.6389 74.12 66.5556 74.2227 67.4356 74.428C68.3156 74.6333 69.1003 74.9707 69.7896 75.44C70.4936 75.8947 71.0509 76.5033 71.4616 77.266C71.8723 78.014 72.0776 78.9307 72.0776 80.016C72.0776 80.9107 71.8869 81.7247 71.5056 82.458C71.1243 83.1913 70.6109 83.822 69.9656 84.35C69.3349 84.878 68.6236 85.2887 67.8316 85.582C67.0543 85.8607 66.2549 86 65.4336 86ZM64.9936 83.558C65.8003 83.558 66.5629 83.4187 67.2816 83.14C68.0003 82.8467 68.5869 82.414 69.0416 81.842C69.5109 81.2553 69.7456 80.5367 69.7456 79.686C69.7456 78.938 69.5256 78.3147 69.0856 77.816C68.6603 77.3173 68.1176 76.9507 67.4576 76.716C66.7976 76.4667 66.1229 76.342 65.4336 76.342C65.0816 76.342 64.7956 76.3933 64.5756 76.496C64.3556 76.5987 64.1576 76.738 63.9816 76.914C63.8056 77.09 63.6003 77.2953 63.3656 77.53C62.9549 77.9553 62.5883 78.4247 62.2656 78.938C61.9429 79.4367 61.7816 80.0087 61.7816 80.654C61.7816 81.6807 62.0896 82.4213 62.7056 82.876C63.3216 83.3307 64.0843 83.558 64.9936 83.558ZM77.7478 85.78C77.1171 85.78 76.5891 85.648 76.1638 85.384C75.7531 85.1053 75.4304 84.746 75.1958 84.306C74.9611 83.866 74.7924 83.3893 74.6898 82.876C74.6018 82.348 74.5578 81.8273 74.5578 81.314V80.236C74.5578 80.192 74.5798 80.0233 74.6238 79.73C74.6678 79.422 74.7118 79.092 74.7558 78.74C74.8144 78.388 74.8584 78.124 74.8878 77.948C74.9318 77.7427 74.9831 77.486 75.0418 77.178C75.1151 76.8553 75.2031 76.54 75.3058 76.232C75.4231 75.9093 75.5698 75.6453 75.7458 75.44C75.9364 75.22 76.1638 75.11 76.4278 75.11C76.8238 75.11 77.1244 75.2273 77.3298 75.462C77.5498 75.6967 77.6598 75.9827 77.6598 76.32C77.6598 76.5987 77.6158 76.87 77.5278 77.134C77.4544 77.398 77.3884 77.6693 77.3298 77.948C77.2271 78.5053 77.1244 79.0627 77.0218 79.62C76.9338 80.1773 76.8898 80.742 76.8898 81.314C76.8898 81.5193 76.9044 81.7833 76.9338 82.106C76.9631 82.4287 77.0438 82.7147 77.1758 82.964C77.3078 83.2133 77.5351 83.338 77.8578 83.338C78.1071 83.338 78.4004 83.1767 78.7378 82.854C79.0898 82.5313 79.4564 82.1133 79.8378 81.6C80.2338 81.0867 80.6298 80.5293 81.0258 79.928C81.4218 79.312 81.7884 78.718 82.1258 78.146C82.4778 77.5593 82.7784 77.046 83.0278 76.606C83.2771 76.1513 83.4531 75.836 83.5558 75.66C83.6731 75.4987 83.7978 75.3667 83.9298 75.264C84.0618 75.1613 84.2304 75.11 84.4358 75.11C85.1251 75.11 85.5358 75.4327 85.6678 76.078V76.87C85.6678 77.5153 85.6458 78.1607 85.6018 78.806C85.5724 79.4367 85.5578 80.0527 85.5578 80.654V81.952C85.6018 82.1867 85.6971 82.3993 85.8438 82.59C85.9904 82.7807 86.1224 82.9713 86.2398 83.162C86.3718 83.338 86.4378 83.5507 86.4378 83.8C86.4378 84.1373 86.3351 84.4233 86.1298 84.658C85.9244 84.8927 85.6531 85.01 85.3158 85.01C84.8758 85.01 84.5238 84.8633 84.2598 84.57C83.9958 84.262 83.7904 83.9027 83.6438 83.492C83.5558 83.228 83.4531 82.8907 83.3358 82.48C83.2331 82.0547 83.1304 81.6367 83.0278 81.226C82.8078 81.6073 82.5584 81.9887 82.2798 82.37C82.0158 82.7367 81.7371 83.096 81.4438 83.448C80.9744 84.0347 80.4244 84.57 79.7938 85.054C79.1631 85.538 78.4811 85.78 77.7478 85.78ZM92.5388 86.44C92.0841 86.44 91.7468 86.3007 91.5268 86.022C91.3068 85.7433 91.1601 85.406 91.0868 85.01C91.0281 84.5993 90.9988 84.2253 90.9988 83.888V83.052C90.9988 82.128 91.0135 81.1967 91.0428 80.258C91.0868 79.3193 91.1161 78.3073 91.1308 77.222C90.7641 77.2367 90.4488 77.2587 90.1848 77.288C89.9355 77.3173 89.6788 77.332 89.4148 77.332C88.7401 77.332 88.4028 77.002 88.4028 76.342C88.4028 76.0927 88.4468 75.858 88.5348 75.638C88.6228 75.4033 88.8061 75.2567 89.0848 75.198L91.0208 74.758C91.2701 74.6993 91.4315 74.5453 91.5048 74.296C91.5928 74.032 91.6368 73.7313 91.6368 73.394C91.6515 73.042 91.6735 72.6973 91.7028 72.36C91.7468 72.0227 91.8568 71.744 92.0328 71.524C92.2235 71.304 92.5388 71.194 92.9788 71.194C93.2868 71.194 93.5141 71.282 93.6608 71.458C93.8221 71.6193 93.9321 71.8173 93.9908 72.052C94.0495 72.2867 94.0788 72.514 94.0788 72.734C94.0788 72.7633 94.0715 72.866 94.0568 73.042C94.0421 73.2033 94.0201 73.3647 93.9908 73.526C93.9761 73.6873 93.9688 73.79 93.9688 73.834V74.538H96.6528C96.9755 74.538 97.2248 74.692 97.4008 75C97.5768 75.2933 97.6648 75.594 97.6648 75.902C97.6648 75.9607 97.6428 76.0707 97.5988 76.232C97.5548 76.3933 97.4741 76.5473 97.3568 76.694C97.2395 76.826 97.0781 76.892 96.8728 76.892H94.0568C94.0421 76.892 94.0128 76.9067 93.9688 76.936C93.9248 76.9507 93.8735 76.9947 93.8148 77.068L93.7708 77.134C93.6975 77.53 93.6461 77.8527 93.6168 78.102C93.5875 78.3367 93.5655 78.5567 93.5508 78.762C93.5508 78.9527 93.5508 79.1873 93.5508 79.466C93.5508 80.2727 93.5655 81.0793 93.5948 81.886C93.6388 82.6927 93.6608 83.5433 93.6608 84.438C93.6608 84.7313 93.6388 85.032 93.5948 85.34C93.5508 85.648 93.4481 85.9047 93.2868 86.11C93.1255 86.33 92.8761 86.44 92.5388 86.44ZM111.81 86.44C111.356 86.44 111.018 86.3007 110.798 86.022C110.578 85.7433 110.432 85.406 110.358 85.01C110.3 84.5993 110.27 84.2253 110.27 83.888V83.052C110.27 82.128 110.285 81.1967 110.314 80.258C110.358 79.3193 110.388 78.3073 110.402 77.222C110.036 77.2367 109.72 77.2587 109.456 77.288C109.207 77.3173 108.95 77.332 108.686 77.332C108.012 77.332 107.674 77.002 107.674 76.342C107.674 76.0927 107.718 75.858 107.806 75.638C107.894 75.4033 108.078 75.2567 108.356 75.198L110.292 74.758C110.542 74.6993 110.703 74.5453 110.776 74.296C110.864 74.032 110.908 73.7313 110.908 73.394C110.923 73.042 110.945 72.6973 110.974 72.36C111.018 72.0227 111.128 71.744 111.304 71.524C111.495 71.304 111.81 71.194 112.25 71.194C112.558 71.194 112.786 71.282 112.932 71.458C113.094 71.6193 113.204 71.8173 113.262 72.052C113.321 72.2867 113.35 72.514 113.35 72.734C113.35 72.7633 113.343 72.866 113.328 73.042C113.314 73.2033 113.292 73.3647 113.262 73.526C113.248 73.6873 113.24 73.79 113.24 73.834V74.538H115.924C116.247 74.538 116.496 74.692 116.672 75C116.848 75.2933 116.936 75.594 116.936 75.902C116.936 75.9607 116.914 76.0707 116.87 76.232C116.826 76.3933 116.746 76.5473 116.628 76.694C116.511 76.826 116.35 76.892 116.144 76.892H113.328C113.314 76.892 113.284 76.9067 113.24 76.936C113.196 76.9507 113.145 76.9947 113.086 77.068L113.042 77.134C112.969 77.53 112.918 77.8527 112.888 78.102C112.859 78.3367 112.837 78.5567 112.822 78.762C112.822 78.9527 112.822 79.1873 112.822 79.466C112.822 80.2727 112.837 81.0793 112.866 81.886C112.91 82.6927 112.932 83.5433 112.932 84.438C112.932 84.7313 112.91 85.032 112.866 85.34C112.822 85.648 112.72 85.9047 112.558 86.11C112.397 86.33 112.148 86.44 111.81 86.44ZM120.09 85.89C119.679 85.89 119.371 85.7507 119.166 85.472C118.975 85.1787 118.88 84.8413 118.88 84.46C118.88 83.58 118.931 82.6853 119.034 81.776C119.151 80.8667 119.21 79.9867 119.21 79.136C119.21 77.6693 119.151 76.2393 119.034 74.846C118.931 73.4527 118.88 72.0227 118.88 70.556V69.984C118.983 69.7493 119.122 69.588 119.298 69.5C119.489 69.3973 119.687 69.346 119.892 69.346C120.229 69.346 120.501 69.4633 120.706 69.698C120.926 69.9327 121.095 70.2187 121.212 70.556C121.329 70.8933 121.41 71.2307 121.454 71.568C121.513 71.9053 121.542 72.184 121.542 72.404V79.708L121.674 79.84L121.696 79.818C122.092 79.422 122.466 78.9747 122.818 78.476C123.185 77.9773 123.559 77.5007 123.94 77.046C124.336 76.5767 124.769 76.188 125.238 75.88C125.722 75.572 126.279 75.418 126.91 75.418C127.467 75.418 127.944 75.5647 128.34 75.858C128.751 76.1513 129.073 76.5327 129.308 77.002C129.543 77.4713 129.697 77.9627 129.77 78.476L130.43 83.14V83.8C130.43 84.0347 130.415 84.284 130.386 84.548C130.357 84.7973 130.269 85.01 130.122 85.186C129.99 85.362 129.755 85.45 129.418 85.45C129.037 85.45 128.736 85.3033 128.516 85.01C128.311 84.702 128.164 84.328 128.076 83.888C127.988 83.448 127.929 83.0153 127.9 82.59C127.871 82.1647 127.841 81.8273 127.812 81.578C127.797 81.4753 127.775 81.2847 127.746 81.006C127.731 80.7273 127.702 80.4047 127.658 80.038C127.614 79.6713 127.555 79.3193 127.482 78.982C127.409 78.63 127.313 78.344 127.196 78.124C127.093 77.8893 126.961 77.772 126.8 77.772C126.551 77.772 126.301 77.8747 126.052 78.08C125.803 78.2853 125.597 78.498 125.436 78.718C124.673 79.7153 123.94 80.7713 123.236 81.886C122.547 82.986 121.857 84.064 121.168 85.12C121.051 85.3107 120.904 85.4867 120.728 85.648C120.552 85.8093 120.339 85.89 120.09 85.89ZM138.177 86.33C137.121 86.33 136.146 86.1687 135.251 85.846C134.371 85.5087 133.66 84.9807 133.117 84.262C132.574 83.5287 132.303 82.5827 132.303 81.424C132.303 80.544 132.442 79.686 132.721 78.85C133.014 78.014 133.432 77.2587 133.975 76.584C134.518 75.8947 135.17 75.352 135.933 74.956C136.696 74.5453 137.554 74.34 138.507 74.34C139.152 74.34 139.754 74.472 140.311 74.736C140.883 74.9853 141.338 75.3593 141.675 75.858C142.027 76.342 142.203 76.936 142.203 77.64C142.203 78.3147 142.064 78.96 141.785 79.576C141.506 80.192 141.125 80.742 140.641 81.226C140.157 81.71 139.607 82.0913 138.991 82.37C138.39 82.634 137.759 82.766 137.099 82.766C136.996 82.766 136.769 82.744 136.417 82.7C136.065 82.6413 135.786 82.5827 135.581 82.524C135.434 82.4947 135.317 82.436 135.229 82.348C135.2 82.3333 135.148 82.3113 135.075 82.282C135.002 82.238 134.95 82.216 134.921 82.216C135.024 82.6413 135.236 83.0007 135.559 83.294C135.896 83.5727 136.278 83.778 136.703 83.91C137.143 84.042 137.561 84.108 137.957 84.108C138.236 84.108 138.514 84.0933 138.793 84.064C139.086 84.02 139.394 83.998 139.717 83.998C140.04 83.998 140.318 84.086 140.553 84.262C140.788 84.438 140.905 84.724 140.905 85.12C140.905 85.4427 140.802 85.692 140.597 85.868C140.406 86.044 140.157 86.1613 139.849 86.22C139.556 86.2787 139.255 86.308 138.947 86.308C138.654 86.3227 138.397 86.33 138.177 86.33ZM137.099 80.214C137.539 80.214 137.972 80.1333 138.397 79.972C138.837 79.796 139.196 79.5393 139.475 79.202C139.768 78.8647 139.915 78.4467 139.915 77.948C139.915 77.5227 139.783 77.1853 139.519 76.936C139.27 76.6867 138.932 76.562 138.507 76.562C138.126 76.562 137.722 76.6647 137.297 76.87C136.872 77.0753 136.468 77.3393 136.087 77.662C135.72 77.9847 135.42 78.3367 135.185 78.718C134.95 79.0847 134.833 79.444 134.833 79.796V79.884C135.214 79.9427 135.596 80.016 135.977 80.104C136.358 80.1773 136.732 80.214 137.099 80.214ZM148.863 86.33C148.452 86.33 147.983 86.2933 147.455 86.22C146.927 86.1613 146.413 86.044 145.915 85.868C145.416 85.692 144.998 85.428 144.661 85.076C144.338 84.724 144.177 84.262 144.177 83.69C144.177 83.3087 144.272 82.9787 144.463 82.7C144.653 82.4067 144.961 82.26 145.387 82.26C145.651 82.26 145.856 82.326 146.003 82.458C146.149 82.59 146.274 82.7513 146.377 82.942C146.494 83.1327 146.626 83.3307 146.773 83.536C146.934 83.7267 147.147 83.888 147.411 84.02C147.689 84.152 148.063 84.218 148.533 84.218C148.87 84.218 149.237 84.1813 149.633 84.108C150.043 84.02 150.395 83.866 150.689 83.646C150.982 83.426 151.129 83.1253 151.129 82.744C151.129 82.4067 150.989 82.1427 150.711 81.952C150.432 81.7467 150.073 81.5707 149.633 81.424C149.193 81.2773 148.731 81.1307 148.247 80.984C147.763 80.8227 147.301 80.6247 146.861 80.39C146.421 80.1553 146.061 79.8473 145.783 79.466C145.504 79.07 145.365 78.564 145.365 77.948C145.365 77.376 145.504 76.8847 145.783 76.474C146.061 76.0633 146.421 75.726 146.861 75.462C147.315 75.1833 147.799 74.9853 148.313 74.868C148.841 74.736 149.347 74.67 149.831 74.67C150.109 74.67 150.432 74.7067 150.799 74.78C151.165 74.8387 151.525 74.9413 151.877 75.088C152.229 75.2347 152.522 75.44 152.757 75.704C152.991 75.9533 153.109 76.2687 153.109 76.65C153.109 77.3247 152.771 77.662 152.097 77.662H151.811C151.371 77.4127 150.997 77.222 150.689 77.09C150.381 76.958 150.029 76.892 149.633 76.892C149.457 76.892 149.207 76.914 148.885 76.958C148.577 76.9873 148.298 77.068 148.049 77.2C147.799 77.332 147.675 77.5447 147.675 77.838C147.675 78.0873 147.814 78.2927 148.093 78.454C148.371 78.6153 148.731 78.7693 149.171 78.916C149.611 79.0627 150.073 79.224 150.557 79.4C151.041 79.576 151.503 79.8033 151.943 80.082C152.383 80.346 152.742 80.6833 153.021 81.094C153.299 81.5047 153.439 82.018 153.439 82.634C153.439 83.5287 153.211 84.2473 152.757 84.79C152.317 85.3327 151.745 85.7287 151.041 85.978C150.351 86.2127 149.625 86.33 148.863 86.33ZM161.423 86.33C160.367 86.33 159.392 86.1687 158.497 85.846C157.617 85.5087 156.906 84.9807 156.363 84.262C155.821 83.5287 155.549 82.5827 155.549 81.424C155.549 80.544 155.689 79.686 155.967 78.85C156.261 78.014 156.679 77.2587 157.221 76.584C157.764 75.8947 158.417 75.352 159.179 74.956C159.942 74.5453 160.8 74.34 161.753 74.34C162.399 74.34 163 74.472 163.557 74.736C164.129 74.9853 164.584 75.3593 164.921 75.858C165.273 76.342 165.449 76.936 165.449 77.64C165.449 78.3147 165.31 78.96 165.031 79.576C164.753 80.192 164.371 80.742 163.887 81.226C163.403 81.71 162.853 82.0913 162.237 82.37C161.636 82.634 161.005 82.766 160.345 82.766C160.243 82.766 160.015 82.744 159.663 82.7C159.311 82.6413 159.033 82.5827 158.827 82.524C158.681 82.4947 158.563 82.436 158.475 82.348C158.446 82.3333 158.395 82.3113 158.321 82.282C158.248 82.238 158.197 82.216 158.167 82.216C158.27 82.6413 158.483 83.0007 158.805 83.294C159.143 83.5727 159.524 83.778 159.949 83.91C160.389 84.042 160.807 84.108 161.203 84.108C161.482 84.108 161.761 84.0933 162.039 84.064C162.333 84.02 162.641 83.998 162.963 83.998C163.286 83.998 163.565 84.086 163.799 84.262C164.034 84.438 164.151 84.724 164.151 85.12C164.151 85.4427 164.049 85.692 163.843 85.868C163.653 86.044 163.403 86.1613 163.095 86.22C162.802 86.2787 162.501 86.308 162.193 86.308C161.9 86.3227 161.643 86.33 161.423 86.33ZM160.345 80.214C160.785 80.214 161.218 80.1333 161.643 79.972C162.083 79.796 162.443 79.5393 162.721 79.202C163.015 78.8647 163.161 78.4467 163.161 77.948C163.161 77.5227 163.029 77.1853 162.765 76.936C162.516 76.6867 162.179 76.562 161.753 76.562C161.372 76.562 160.969 76.6647 160.543 76.87C160.118 77.0753 159.715 77.3393 159.333 77.662C158.967 77.9847 158.666 78.3367 158.431 78.718C158.197 79.0847 158.079 79.444 158.079 79.796V79.884C158.461 79.9427 158.842 80.016 159.223 80.104C159.605 80.1773 159.979 80.214 160.345 80.214ZM40.088 142.16C39.256 142.16 38.5627 142.107 38.008 142C37.4747 141.893 37.0373 141.637 36.696 141.232C36.376 140.805 36.12 140.155 35.928 139.28C35.3093 139.131 34.8613 138.864 34.584 138.48C34.328 138.075 34.2 137.552 34.2 136.912V136.272C34.3493 135.163 34.488 134.139 34.616 133.2C34.744 132.24 34.808 131.216 34.808 130.128C34.808 129.275 34.7973 128.528 34.776 127.888C34.776 127.227 34.7333 126.448 34.648 125.552C34.6693 125.445 34.5413 125.349 34.264 125.264C33.9867 125.179 33.8053 125.125 33.72 125.104C33.4427 124.997 33.1867 124.827 32.952 124.592C32.7173 124.336 32.6 123.973 32.6 123.504C32.6 122.971 32.8453 122.491 33.336 122.064C33.848 121.616 34.4987 121.221 35.288 120.88C36.0987 120.539 36.9413 120.261 37.816 120.048C38.6907 119.813 39.512 119.643 40.28 119.536C41.048 119.408 41.656 119.344 42.104 119.344C43.1707 119.344 44.1733 119.557 45.112 119.984C46.0507 120.389 46.8187 120.997 47.416 121.808C48.0133 122.597 48.312 123.579 48.312 124.752V125.552C48.248 125.808 48.12 126.107 47.928 126.448C47.7573 126.789 47.5867 127.12 47.416 127.44C47.2667 127.76 47.192 128.016 47.192 128.208C47.192 128.315 47.32 128.443 47.576 128.592C47.8533 128.72 48.1413 128.848 48.44 128.976C48.76 129.083 48.9733 129.189 49.08 129.296C49.9333 130.085 50.5627 130.875 50.968 131.664C51.3947 132.453 51.608 133.413 51.608 134.544V135.824C51.352 136.976 50.7867 137.957 49.912 138.768C49.0587 139.579 48.056 140.24 46.904 140.752C45.752 141.243 44.568 141.605 43.352 141.84C42.136 142.053 41.048 142.16 40.088 142.16ZM37.848 138.416H39.736C40.76 138.416 41.688 138.373 42.52 138.288C43.3733 138.181 44.1733 137.957 44.92 137.616C45.6667 137.253 46.4133 136.688 47.16 135.92C47.4587 135.621 47.6827 135.323 47.832 135.024C47.9813 134.725 48.056 134.363 48.056 133.936C48.056 133.232 47.768 132.645 47.192 132.176C46.616 131.685 45.9653 131.44 45.24 131.44H40.216C39.64 131.44 39.352 131.109 39.352 130.448C39.352 130.363 39.352 130.277 39.352 130.192C39.3733 130.107 39.384 130.032 39.384 129.968C39.384 129.392 39.5653 128.933 39.928 128.592C40.2907 128.229 40.7387 127.931 41.272 127.696C41.8053 127.44 42.328 127.184 42.84 126.928C43.3733 126.651 43.8213 126.331 44.184 125.968C44.5467 125.584 44.728 125.083 44.728 124.464C44.728 124.037 44.568 123.717 44.248 123.504C43.9493 123.291 43.5973 123.141 43.192 123.056C42.7867 122.971 42.424 122.928 42.104 122.928C41.4213 122.928 40.7067 123.013 39.96 123.184C39.2133 123.355 38.6267 123.685 38.2 124.176V125.392C38.2 126.416 38.2213 127.44 38.264 128.464C38.328 129.488 38.36 130.512 38.36 131.536V132.944C38.36 133.115 38.3493 133.403 38.328 133.808C38.3067 134.192 38.2747 134.576 38.232 134.96C38.2107 135.344 38.2 135.621 38.2 135.792C38.2 136.219 38.1253 136.645 37.976 137.072C37.848 137.477 37.7627 137.893 37.72 138.32L37.848 138.416ZM63.3315 142.48C61.7955 142.48 60.3768 142.245 59.0755 141.776C57.7955 141.285 56.7608 140.517 55.9715 139.472C55.1822 138.405 54.7875 137.029 54.7875 135.344C54.7875 134.064 54.9902 132.816 55.3955 131.6C55.8222 130.384 56.4302 129.285 57.2195 128.304C58.0088 127.301 58.9582 126.512 60.0675 125.936C61.1768 125.339 62.4248 125.04 63.8115 125.04C64.7502 125.04 65.6248 125.232 66.4355 125.616C67.2675 125.979 67.9288 126.523 68.4195 127.248C68.9315 127.952 69.1875 128.816 69.1875 129.84C69.1875 130.821 68.9848 131.76 68.5795 132.656C68.1742 133.552 67.6195 134.352 66.9155 135.056C66.2115 135.76 65.4115 136.315 64.5155 136.72C63.6408 137.104 62.7235 137.296 61.7635 137.296C61.6142 137.296 61.2835 137.264 60.7715 137.2C60.2595 137.115 59.8542 137.029 59.5555 136.944C59.3422 136.901 59.1715 136.816 59.0435 136.688C59.0008 136.667 58.9262 136.635 58.8195 136.592C58.7128 136.528 58.6382 136.496 58.5955 136.496C58.7448 137.115 59.0542 137.637 59.5235 138.064C60.0142 138.469 60.5688 138.768 61.1875 138.96C61.8275 139.152 62.4355 139.248 63.0115 139.248C63.4168 139.248 63.8222 139.227 64.2275 139.184C64.6542 139.12 65.1022 139.088 65.5715 139.088C66.0408 139.088 66.4462 139.216 66.7875 139.472C67.1288 139.728 67.2995 140.144 67.2995 140.72C67.2995 141.189 67.1502 141.552 66.8515 141.808C66.5742 142.064 66.2115 142.235 65.7635 142.32C65.3368 142.405 64.8995 142.448 64.4515 142.448C64.0248 142.469 63.6515 142.48 63.3315 142.48ZM61.7635 133.584C62.4035 133.584 63.0328 133.467 63.6515 133.232C64.2915 132.976 64.8142 132.603 65.2195 132.112C65.6462 131.621 65.8595 131.013 65.8595 130.288C65.8595 129.669 65.6675 129.179 65.2835 128.816C64.9208 128.453 64.4302 128.272 63.8115 128.272C63.2568 128.272 62.6702 128.421 62.0515 128.72C61.4328 129.019 60.8462 129.403 60.2915 129.872C59.7582 130.341 59.3208 130.853 58.9795 131.408C58.6382 131.941 58.4675 132.464 58.4675 132.976V133.104C59.0222 133.189 59.5768 133.296 60.1315 133.424C60.6862 133.531 61.2302 133.584 61.7635 133.584ZM78.5223 142.32C77.5409 142.32 76.6236 142.096 75.7703 141.648C74.9169 141.2 74.2023 140.603 73.6263 139.856C73.0503 139.088 72.6769 138.224 72.5063 137.264V135.632C72.5063 134.437 72.7196 133.232 73.1463 132.016C73.5729 130.8 74.1809 129.68 74.9703 128.656C75.7596 127.611 76.6983 126.779 77.7863 126.16C78.8743 125.52 80.0689 125.2 81.3703 125.2C81.9036 125.2 82.3623 125.296 82.7463 125.488C83.1516 125.68 83.5143 125.883 83.8343 126.096C84.1756 126.288 84.5063 126.405 84.8263 126.448C84.9969 125.573 85.2316 124.997 85.5303 124.72C85.8289 124.421 86.2343 124.272 86.7463 124.272C87.3649 124.272 87.7809 124.475 87.9943 124.88C88.2289 125.264 88.3463 125.755 88.3463 126.352C88.3463 127.525 88.3143 128.677 88.2503 129.808C88.2076 130.939 88.1863 132.101 88.1863 133.296C88.1863 134.235 88.2396 135.205 88.3463 136.208C88.4529 137.211 88.5063 138.181 88.5063 139.12V139.792C88.5063 140.261 88.4103 140.699 88.2183 141.104C88.0476 141.488 87.6529 141.68 87.0343 141.68C86.4583 141.68 86.0423 141.509 85.7863 141.168C85.5516 140.805 85.3916 140.379 85.3063 139.888C85.2423 139.376 85.1783 138.917 85.1143 138.512L84.9863 138.384C84.2609 139.109 83.6103 139.771 83.0343 140.368C82.4796 140.965 81.8609 141.445 81.1783 141.808C80.4956 142.149 79.6103 142.32 78.5223 142.32ZM78.2023 139.088C78.9489 139.088 79.6529 138.864 80.3142 138.416C80.9969 137.947 81.6049 137.349 82.1383 136.624C82.6716 135.877 83.0876 135.099 83.3863 134.288C83.6849 133.477 83.8343 132.72 83.8343 132.016C83.8343 131.483 83.7596 130.949 83.6103 130.416C83.4609 129.861 83.2049 129.392 82.8423 129.008C82.5009 128.624 82.0103 128.432 81.3703 128.432C80.6663 128.432 79.9729 128.677 79.2903 129.168C78.6289 129.659 78.0316 130.288 77.4983 131.056C76.9649 131.803 76.5383 132.592 76.2183 133.424C75.8983 134.235 75.7383 134.971 75.7383 135.632C75.7383 136.165 75.8129 136.699 75.9623 137.232C76.1329 137.765 76.3996 138.213 76.7623 138.576C77.1249 138.917 77.6049 139.088 78.2023 139.088ZM96.9343 141.68C96.0169 141.68 95.2489 141.488 94.6302 141.104C94.0329 140.699 93.5636 140.176 93.2223 139.536C92.8809 138.896 92.6356 138.203 92.4863 137.456C92.3583 136.688 92.2943 135.931 92.2943 135.184V133.616C92.2943 133.552 92.3263 133.307 92.3903 132.88C92.4543 132.432 92.5183 131.952 92.5823 131.44C92.6676 130.928 92.7316 130.544 92.7743 130.288C92.8383 129.989 92.9129 129.616 92.9983 129.168C93.1049 128.699 93.2329 128.24 93.3823 127.792C93.5529 127.323 93.7663 126.939 94.0223 126.64C94.2996 126.32 94.6303 126.16 95.0143 126.16C95.5903 126.16 96.0276 126.331 96.3263 126.672C96.6463 127.013 96.8063 127.429 96.8063 127.92C96.8063 128.325 96.7423 128.72 96.6143 129.104C96.5076 129.488 96.4116 129.883 96.3263 130.288C96.1769 131.099 96.0276 131.909 95.8783 132.72C95.7503 133.531 95.6863 134.352 95.6863 135.184C95.6863 135.483 95.7076 135.867 95.7503 136.336C95.7929 136.805 95.9103 137.221 96.1023 137.584C96.2943 137.947 96.6249 138.128 97.0943 138.128C97.4569 138.128 97.8836 137.893 98.3743 137.424C98.8863 136.955 99.4196 136.347 99.9743 135.6C100.55 134.853 101.126 134.043 101.702 133.168C102.278 132.272 102.812 131.408 103.302 130.576C103.814 129.723 104.252 128.976 104.614 128.336C104.977 127.675 105.233 127.216 105.382 126.96C105.553 126.725 105.734 126.533 105.926 126.384C106.118 126.235 106.364 126.16 106.662 126.16C107.665 126.16 108.262 126.629 108.454 127.568V128.72C108.454 129.659 108.422 130.597 108.358 131.536C108.316 132.453 108.294 133.349 108.294 134.224V136.112C108.358 136.453 108.497 136.763 108.71 137.04C108.924 137.317 109.116 137.595 109.286 137.872C109.478 138.128 109.574 138.437 109.574 138.8C109.574 139.291 109.425 139.707 109.126 140.048C108.828 140.389 108.433 140.56 107.942 140.56C107.302 140.56 106.79 140.347 106.406 139.92C106.022 139.472 105.724 138.949 105.51 138.352C105.382 137.968 105.233 137.477 105.062 136.88C104.913 136.261 104.764 135.653 104.614 135.056C104.294 135.611 103.932 136.165 103.526 136.72C103.142 137.253 102.737 137.776 102.31 138.288C101.628 139.141 100.828 139.92 99.9103 140.624C98.9929 141.328 98.0009 141.68 96.9343 141.68ZM118.449 142.64C117.787 142.64 117.297 142.437 116.977 142.032C116.657 141.627 116.443 141.136 116.337 140.56C116.251 139.963 116.209 139.419 116.209 138.928V137.712C116.209 136.368 116.23 135.013 116.273 133.648C116.337 132.283 116.379 130.811 116.401 129.232C115.867 129.253 115.409 129.285 115.025 129.328C114.662 129.371 114.289 129.392 113.905 129.392C112.923 129.392 112.433 128.912 112.433 127.952C112.433 127.589 112.497 127.248 112.625 126.928C112.753 126.587 113.019 126.373 113.424 126.288L116.241 125.648C116.603 125.563 116.838 125.339 116.945 124.976C117.073 124.592 117.137 124.155 117.137 123.664C117.158 123.152 117.19 122.651 117.233 122.16C117.297 121.669 117.457 121.264 117.713 120.944C117.99 120.624 118.449 120.464 119.089 120.464C119.537 120.464 119.867 120.592 120.081 120.848C120.315 121.083 120.475 121.371 120.561 121.712C120.646 122.053 120.689 122.384 120.689 122.704C120.689 122.747 120.678 122.896 120.657 123.152C120.635 123.387 120.603 123.621 120.561 123.856C120.539 124.091 120.529 124.24 120.529 124.304V125.328H124.433C124.902 125.328 125.265 125.552 125.521 126C125.777 126.427 125.905 126.864 125.905 127.312C125.905 127.397 125.873 127.557 125.809 127.792C125.745 128.027 125.627 128.251 125.457 128.464C125.286 128.656 125.051 128.752 124.753 128.752H120.657C120.635 128.752 120.593 128.773 120.529 128.816C120.465 128.837 120.39 128.901 120.305 129.008L120.241 129.104C120.134 129.68 120.059 130.149 120.017 130.512C119.974 130.853 119.942 131.173 119.921 131.472C119.921 131.749 119.921 132.091 119.921 132.496C119.921 133.669 119.942 134.843 119.985 136.016C120.049 137.189 120.081 138.427 120.081 139.728C120.081 140.155 120.049 140.592 119.985 141.04C119.921 141.488 119.771 141.861 119.536 142.16C119.302 142.48 118.939 142.64 118.449 142.64ZM132.124 122.288C131.484 122.288 130.929 122.085 130.46 121.68C129.99 121.275 129.756 120.677 129.756 119.888C129.756 119.099 130.033 118.544 130.588 118.224C131.142 117.904 131.708 117.744 132.284 117.744C132.945 117.744 133.5 117.947 133.948 118.352C134.417 118.757 134.652 119.365 134.652 120.176C134.652 120.944 134.374 121.488 133.82 121.808C133.286 122.128 132.721 122.288 132.124 122.288ZM130.844 141.52C130.438 141.52 130.129 141.307 129.916 140.88C129.702 140.453 129.542 140.027 129.436 139.6V135.472C129.436 135.365 129.457 135.088 129.5 134.64C129.564 134.171 129.628 133.627 129.692 133.008C129.777 132.368 129.852 131.76 129.916 131.184C130.001 130.587 130.065 130.117 130.108 129.776C130.172 129.349 130.246 128.88 130.332 128.368C130.438 127.856 130.62 127.408 130.876 127.024C131.132 126.64 131.494 126.448 131.964 126.448C132.476 126.448 132.838 126.576 133.052 126.832C133.286 127.067 133.425 127.365 133.468 127.728C133.51 128.091 133.532 128.464 133.532 128.848V129.968C133.532 130.011 133.521 130.107 133.5 130.256C133.478 130.384 133.446 130.533 133.404 130.704C133.254 131.451 133.137 132.005 133.052 132.368C132.988 132.709 132.934 133.008 132.892 133.264C132.87 133.499 132.86 133.829 132.86 134.256C132.86 134.512 132.86 134.832 132.86 135.216C132.881 135.6 132.892 136.101 132.892 136.72C132.892 136.997 132.902 137.275 132.924 137.552C132.945 137.808 132.956 138.085 132.956 138.384C132.956 138.704 132.924 139.045 132.86 139.408C132.774 139.941 132.582 140.432 132.284 140.88C131.985 141.307 131.505 141.52 130.844 141.52ZM141.395 143.28C140.947 143.28 140.541 143.077 140.179 142.672C139.837 142.267 139.667 141.819 139.667 141.328V138.64C139.667 137.381 139.688 136.155 139.731 134.96C139.795 133.744 139.827 132.507 139.827 131.248C139.827 131.184 139.805 131.035 139.763 130.8C139.741 130.565 139.72 130.309 139.699 130.032H139.507C139.293 130.032 139.059 130.064 138.803 130.128C138.568 130.171 138.333 130.192 138.099 130.192C137.565 130.192 137.139 130.043 136.819 129.744C136.499 129.424 136.339 128.987 136.339 128.432C136.339 127.92 136.456 127.557 136.691 127.344C136.947 127.131 137.256 126.992 137.619 126.928C138.003 126.864 138.387 126.811 138.771 126.768C139.176 126.704 139.517 126.576 139.795 126.384C140.072 126.192 140.243 125.861 140.307 125.392C140.541 124.368 140.787 123.397 141.043 122.48C141.32 121.563 141.683 120.752 142.131 120.048C142.579 119.344 143.187 118.789 143.955 118.384C144.723 117.979 145.725 117.776 146.963 117.776C147.24 117.776 147.613 117.819 148.083 117.904C148.573 117.968 149.064 118.085 149.555 118.256C150.067 118.427 150.493 118.661 150.835 118.96C151.197 119.237 151.379 119.6 151.379 120.048C151.379 120.539 151.208 120.965 150.867 121.328C150.547 121.669 150.184 121.84 149.779 121.84C149.245 121.84 148.744 121.733 148.275 121.52C147.805 121.307 147.304 121.2 146.771 121.2C146.024 121.2 145.448 121.456 145.043 121.968C144.659 122.459 144.392 123.088 144.243 123.856C144.093 124.603 144.008 125.36 143.987 126.128H147.123C147.485 126.128 147.805 126.32 148.083 126.704C148.381 127.067 148.531 127.429 148.531 127.792C148.531 128.219 148.413 128.539 148.179 128.752C147.944 128.965 147.656 129.115 147.315 129.2C146.973 129.264 146.643 129.328 146.323 129.392C146.131 129.392 145.843 129.424 145.459 129.488C145.075 129.531 144.68 129.573 144.275 129.616C143.891 129.659 143.581 129.691 143.347 129.712C143.219 129.797 143.112 130.096 143.027 130.608C142.963 131.099 142.909 131.685 142.867 132.368C142.845 133.051 142.835 133.733 142.835 134.416C142.835 134.971 142.835 135.483 142.835 135.952C142.856 136.421 142.867 136.741 142.867 136.912C142.867 137.552 142.888 138.181 142.931 138.8C142.995 139.419 143.027 140.005 143.027 140.56C143.027 140.944 142.995 141.349 142.931 141.776C142.888 142.181 142.749 142.533 142.515 142.832C142.301 143.131 141.928 143.28 141.395 143.28ZM155.997 141.68C155.079 141.68 154.311 141.488 153.693 141.104C153.095 140.699 152.626 140.176 152.285 139.536C151.943 138.896 151.698 138.203 151.549 137.456C151.421 136.688 151.357 135.931 151.357 135.184V133.616C151.357 133.552 151.389 133.307 151.453 132.88C151.517 132.432 151.581 131.952 151.645 131.44C151.73 130.928 151.794 130.544 151.837 130.288C151.901 129.989 151.975 129.616 152.061 129.168C152.167 128.699 152.295 128.24 152.445 127.792C152.615 127.323 152.829 126.939 153.085 126.64C153.362 126.32 153.693 126.16 154.077 126.16C154.653 126.16 155.09 126.331 155.389 126.672C155.709 127.013 155.869 127.429 155.869 127.92C155.869 128.325 155.805 128.72 155.677 129.104C155.57 129.488 155.474 129.883 155.389 130.288C155.239 131.099 155.09 131.909 154.941 132.72C154.813 133.531 154.749 134.352 154.749 135.184C154.749 135.483 154.77 135.867 154.813 136.336C154.855 136.805 154.973 137.221 155.165 137.584C155.357 137.947 155.687 138.128 156.157 138.128C156.519 138.128 156.946 137.893 157.437 137.424C157.949 136.955 158.482 136.347 159.037 135.6C159.613 134.853 160.189 134.043 160.765 133.168C161.341 132.272 161.874 131.408 162.365 130.576C162.877 129.723 163.314 128.976 163.677 128.336C164.039 127.675 164.295 127.216 164.445 126.96C164.615 126.725 164.797 126.533 164.989 126.384C165.181 126.235 165.426 126.16 165.725 126.16C166.727 126.16 167.325 126.629 167.517 127.568V128.72C167.517 129.659 167.485 130.597 167.421 131.536C167.378 132.453 167.357 133.349 167.357 134.224V136.112C167.421 136.453 167.559 136.763 167.773 137.04C167.986 137.317 168.178 137.595 168.349 137.872C168.541 138.128 168.637 138.437 168.637 138.8C168.637 139.291 168.487 139.707 168.189 140.048C167.89 140.389 167.495 140.56 167.005 140.56C166.365 140.56 165.853 140.347 165.469 139.92C165.085 139.472 164.786 138.949 164.573 138.352C164.445 137.968 164.295 137.477 164.125 136.88C163.975 136.261 163.826 135.653 163.677 135.056C163.357 135.611 162.994 136.165 162.589 136.72C162.205 137.253 161.799 137.776 161.373 138.288C160.69 139.141 159.89 139.92 158.973 140.624C158.055 141.328 157.063 141.68 155.997 141.68ZM175.015 142.16C174.524 142.16 174.151 142 173.895 141.68C173.66 141.339 173.5 140.923 173.415 140.432C173.351 139.941 173.319 139.44 173.319 138.928C173.319 138.672 173.319 138.427 173.319 138.192C173.34 137.936 173.351 137.701 173.351 137.488C173.351 136.976 173.362 136.187 173.383 135.12C173.404 134.053 173.436 132.837 173.479 131.472C173.522 130.085 173.575 128.645 173.639 127.152C173.703 125.659 173.788 124.219 173.895 122.832C174.023 121.445 174.162 120.229 174.311 119.184C174.46 118.224 174.727 117.456 175.111 116.88C175.516 116.304 175.922 116.016 176.327 116.016C176.69 116.016 176.999 116.304 177.255 116.88C177.511 117.456 177.607 118.405 177.543 119.728C177.138 122.181 176.839 124.549 176.647 126.832C176.455 129.115 176.359 131.472 176.359 133.904C176.359 134.928 176.412 135.952 176.519 136.976C176.626 138 176.679 139.024 176.679 140.048C176.679 140.709 176.54 141.232 176.263 141.616C175.986 141.979 175.57 142.16 175.015 142.16ZM34.36 181.84C33.848 181.84 33.4747 181.723 33.24 181.488C33.0267 181.232 32.888 180.923 32.824 180.56C32.76 180.197 32.728 179.824 32.728 179.44V178.96C32.728 178.917 32.728 178.875 32.728 178.832C32.728 178.789 32.7387 178.736 32.76 178.672L32.824 178.416L33.208 176.08C33.2507 175.803 33.304 175.344 33.368 174.704C33.4533 174.043 33.528 173.328 33.592 172.56C33.6773 171.792 33.7413 171.099 33.784 170.48C33.8267 169.84 33.848 169.403 33.848 169.168C33.848 169.04 33.8587 168.741 33.88 168.272C33.9013 167.781 33.912 167.237 33.912 166.64C33.9333 166.043 33.9547 165.509 33.976 165.04C33.9973 164.549 34.008 164.251 34.008 164.144C34.008 163.76 34.0507 163.333 34.136 162.864C34.2427 162.373 34.4347 161.957 34.712 161.616C34.9893 161.253 35.3947 161.072 35.928 161.072C36.2693 161.072 36.6 161.221 36.92 161.52C37.24 161.797 37.5387 162.128 37.816 162.512C38.0933 162.875 38.3173 163.195 38.488 163.472C39.4053 164.965 40.2693 166.459 41.08 167.952C41.912 169.445 42.7973 170.907 43.736 172.336C44.696 173.744 45.8053 175.077 47.064 176.336C47.4053 175.589 47.6187 174.907 47.704 174.288C47.8107 173.648 47.864 173.104 47.864 172.656V162.416C47.864 161.84 48.0347 161.403 48.376 161.104C48.7387 160.784 49.1653 160.624 49.656 160.624C50.104 160.624 50.488 160.72 50.808 160.912C51.128 161.083 51.3307 161.413 51.416 161.904V171.056C51.416 171.205 51.4053 171.493 51.384 171.92C51.3627 172.325 51.3307 172.773 51.288 173.264C51.2667 173.733 51.2347 174.181 51.192 174.608C51.1707 175.013 51.1387 175.301 51.096 175.472C51.0107 176.005 50.904 176.571 50.776 177.168C50.648 177.744 50.456 178.299 50.2 178.832C49.944 179.344 49.592 179.76 49.144 180.08C48.696 180.4 48.12 180.56 47.416 180.56C46.7333 180.56 46.0827 180.347 45.464 179.92C44.8453 179.472 44.28 178.939 43.768 178.32C43.2773 177.701 42.8613 177.136 42.52 176.624L37.752 169.2L37.528 168.944C37.5067 169.84 37.464 170.757 37.4 171.696C37.3573 172.635 37.304 173.477 37.24 174.224C37.1973 174.949 37.144 175.483 37.08 175.824C37.0587 175.952 37.016 176.187 36.952 176.528C36.9093 176.869 36.856 177.221 36.792 177.584C36.728 177.947 36.664 178.245 36.6 178.48C36.5573 178.864 36.44 179.323 36.248 179.856C36.0773 180.389 35.832 180.859 35.512 181.264C35.2133 181.648 34.8293 181.84 34.36 181.84ZM63.804 182C62.268 182 60.8387 181.669 59.516 181.008C58.1933 180.347 57.1267 179.408 56.316 178.192C55.5053 176.976 55.1 175.557 55.1 173.936C55.1 172.827 55.324 171.803 55.772 170.864C56.2413 169.904 56.828 169.008 57.532 168.176C58.2573 167.344 58.9827 166.565 59.708 165.84C60.092 165.456 60.5507 165.179 61.084 165.008C61.6173 164.816 62.1613 164.72 62.716 164.72C64.1027 164.72 65.436 164.869 66.716 165.168C67.996 165.467 69.1373 165.957 70.14 166.64C71.164 167.301 71.9747 168.187 72.572 169.296C73.1693 170.384 73.468 171.717 73.468 173.296C73.468 174.597 73.1907 175.781 72.636 176.848C72.0813 177.915 71.3347 178.832 70.396 179.6C69.4787 180.368 68.444 180.965 67.292 181.392C66.1613 181.797 64.9987 182 63.804 182ZM63.164 178.448C64.3373 178.448 65.4467 178.245 66.492 177.84C67.5373 177.413 68.3907 176.784 69.052 175.952C69.7347 175.099 70.076 174.053 70.076 172.816C70.076 171.728 69.756 170.821 69.116 170.096C68.4973 169.371 67.708 168.837 66.748 168.496C65.788 168.133 64.8067 167.952 63.804 167.952C63.292 167.952 62.876 168.027 62.556 168.176C62.236 168.325 61.948 168.528 61.692 168.784C61.436 169.04 61.1373 169.339 60.796 169.68C60.1987 170.299 59.6653 170.981 59.196 171.728C58.7267 172.453 58.492 173.285 58.492 174.224C58.492 175.717 58.94 176.795 59.836 177.456C60.732 178.117 61.8413 178.448 63.164 178.448ZM82.3235 182.64C81.6622 182.64 81.1715 182.437 80.8515 182.032C80.5315 181.627 80.3182 181.136 80.2115 180.56C80.1262 179.963 80.0835 179.419 80.0835 178.928V177.712C80.0835 176.368 80.1048 175.013 80.1475 173.648C80.2115 172.283 80.2542 170.811 80.2755 169.232C79.7422 169.253 79.2835 169.285 78.8995 169.328C78.5368 169.371 78.1635 169.392 77.7795 169.392C76.7982 169.392 76.3075 168.912 76.3075 167.952C76.3075 167.589 76.3715 167.248 76.4995 166.928C76.6275 166.587 76.8942 166.373 77.2995 166.288L80.1155 165.648C80.4782 165.563 80.7128 165.339 80.8195 164.976C80.9475 164.592 81.0115 164.155 81.0115 163.664C81.0328 163.152 81.0648 162.651 81.1075 162.16C81.1715 161.669 81.3315 161.264 81.5875 160.944C81.8648 160.624 82.3235 160.464 82.9635 160.464C83.4115 160.464 83.7422 160.592 83.9555 160.848C84.1902 161.083 84.3502 161.371 84.4355 161.712C84.5208 162.053 84.5635 162.384 84.5635 162.704C84.5635 162.747 84.5528 162.896 84.5315 163.152C84.5102 163.387 84.4782 163.621 84.4355 163.856C84.4142 164.091 84.4035 164.24 84.4035 164.304V165.328H88.3075C88.7768 165.328 89.1395 165.552 89.3955 166C89.6515 166.427 89.7795 166.864 89.7795 167.312C89.7795 167.397 89.7475 167.557 89.6835 167.792C89.6195 168.027 89.5022 168.251 89.3315 168.464C89.1608 168.656 88.9262 168.752 88.6275 168.752H84.5315C84.5102 168.752 84.4675 168.773 84.4035 168.816C84.3395 168.837 84.2648 168.901 84.1795 169.008L84.1155 169.104C84.0088 169.68 83.9342 170.149 83.8915 170.512C83.8488 170.853 83.8168 171.173 83.7955 171.472C83.7955 171.749 83.7955 172.091 83.7955 172.496C83.7955 173.669 83.8168 174.843 83.8595 176.016C83.9235 177.189 83.9555 178.427 83.9555 179.728C83.9555 180.155 83.9235 180.592 83.8595 181.04C83.7955 181.488 83.6462 181.861 83.4115 182.16C83.1768 182.48 82.8142 182.64 82.3235 182.64ZM100.863 182.48C99.3268 182.48 97.9081 182.245 96.6068 181.776C95.3268 181.285 94.2921 180.517 93.5028 179.472C92.7134 178.405 92.3188 177.029 92.3188 175.344C92.3188 174.064 92.5214 172.816 92.9268 171.6C93.3534 170.384 93.9614 169.285 94.7508 168.304C95.5401 167.301 96.4894 166.512 97.5988 165.936C98.7081 165.339 99.9561 165.04 101.343 165.04C102.281 165.04 103.156 165.232 103.967 165.616C104.799 165.979 105.46 166.523 105.951 167.248C106.463 167.952 106.719 168.816 106.719 169.84C106.719 170.821 106.516 171.76 106.111 172.656C105.705 173.552 105.151 174.352 104.447 175.056C103.743 175.76 102.943 176.315 102.047 176.72C101.172 177.104 100.255 177.296 99.2948 177.296C99.1454 177.296 98.8148 177.264 98.3028 177.2C97.7908 177.115 97.3854 177.029 97.0868 176.944C96.8734 176.901 96.7028 176.816 96.5748 176.688C96.5321 176.667 96.4574 176.635 96.3508 176.592C96.2441 176.528 96.1694 176.496 96.1268 176.496C96.2761 177.115 96.5854 177.637 97.0548 178.064C97.5454 178.469 98.1001 178.768 98.7188 178.96C99.3588 179.152 99.9668 179.248 100.543 179.248C100.948 179.248 101.353 179.227 101.759 179.184C102.185 179.12 102.633 179.088 103.103 179.088C103.572 179.088 103.977 179.216 104.319 179.472C104.66 179.728 104.831 180.144 104.831 180.72C104.831 181.189 104.681 181.552 104.383 181.808C104.105 182.064 103.743 182.235 103.295 182.32C102.868 182.405 102.431 182.448 101.983 182.448C101.556 182.469 101.183 182.48 100.863 182.48ZM99.2948 173.584C99.9348 173.584 100.564 173.467 101.183 173.232C101.823 172.976 102.345 172.603 102.751 172.112C103.177 171.621 103.391 171.013 103.391 170.288C103.391 169.669 103.199 169.179 102.815 168.816C102.452 168.453 101.961 168.272 101.343 168.272C100.788 168.272 100.201 168.421 99.5828 168.72C98.9641 169.019 98.3774 169.403 97.8228 169.872C97.2894 170.341 96.8521 170.853 96.5108 171.408C96.1694 171.941 95.9988 172.464 95.9988 172.976V173.104C96.5534 173.189 97.1081 173.296 97.6628 173.424C98.2174 173.531 98.7614 173.584 99.2948 173.584ZM116.406 182.48C115.808 182.48 115.126 182.427 114.358 182.32C113.59 182.235 112.843 182.064 112.118 181.808C111.392 181.552 110.784 181.168 110.294 180.656C109.824 180.144 109.59 179.472 109.59 178.64C109.59 178.085 109.728 177.605 110.006 177.2C110.283 176.773 110.731 176.56 111.35 176.56C111.734 176.56 112.032 176.656 112.246 176.848C112.459 177.04 112.64 177.275 112.79 177.552C112.96 177.829 113.152 178.117 113.366 178.416C113.6 178.693 113.91 178.928 114.294 179.12C114.699 179.312 115.243 179.408 115.926 179.408C116.416 179.408 116.95 179.355 117.526 179.248C118.123 179.12 118.635 178.896 119.062 178.576C119.488 178.256 119.702 177.819 119.702 177.264C119.702 176.773 119.499 176.389 119.094 176.112C118.688 175.813 118.166 175.557 117.526 175.344C116.886 175.131 116.214 174.917 115.51 174.704C114.806 174.469 114.134 174.181 113.494 173.84C112.854 173.499 112.331 173.051 111.926 172.496C111.52 171.92 111.318 171.184 111.318 170.288C111.318 169.456 111.52 168.741 111.926 168.144C112.331 167.547 112.854 167.056 113.494 166.672C114.155 166.267 114.859 165.979 115.606 165.808C116.374 165.616 117.11 165.52 117.814 165.52C118.219 165.52 118.688 165.573 119.222 165.68C119.755 165.765 120.278 165.915 120.79 166.128C121.302 166.341 121.728 166.64 122.07 167.024C122.411 167.387 122.582 167.845 122.582 168.4C122.582 169.381 122.091 169.872 121.11 169.872H120.694C120.054 169.509 119.51 169.232 119.062 169.04C118.614 168.848 118.102 168.752 117.526 168.752C117.27 168.752 116.907 168.784 116.438 168.848C115.99 168.891 115.584 169.008 115.222 169.2C114.859 169.392 114.678 169.701 114.678 170.128C114.678 170.491 114.88 170.789 115.286 171.024C115.691 171.259 116.214 171.483 116.854 171.696C117.494 171.909 118.166 172.144 118.87 172.4C119.574 172.656 120.246 172.987 120.886 173.392C121.526 173.776 122.048 174.267 122.454 174.864C122.859 175.461 123.062 176.208 123.062 177.104C123.062 178.405 122.731 179.451 122.07 180.24C121.43 181.029 120.598 181.605 119.574 181.968C118.571 182.309 117.515 182.48 116.406 182.48ZM130.707 182.032C130.323 182.032 129.971 181.893 129.651 181.616C129.353 181.339 129.203 180.933 129.203 180.4C129.203 179.696 129.395 179.163 129.779 178.8C130.185 178.437 130.622 178.256 131.091 178.256C131.497 178.256 131.859 178.405 132.179 178.704C132.499 179.003 132.649 179.451 132.627 180.048C132.585 180.709 132.361 181.211 131.955 181.552C131.571 181.872 131.155 182.032 130.707 182.032ZM140.051 182.032C139.667 182.032 139.315 181.893 138.995 181.616C138.696 181.339 138.547 180.933 138.547 180.4C138.547 179.696 138.739 179.163 139.123 178.8C139.528 178.437 139.966 178.256 140.435 178.256C140.84 178.256 141.203 178.405 141.523 178.704C141.843 179.003 141.992 179.451 141.971 180.048C141.928 180.709 141.704 181.211 141.299 181.552C140.915 181.872 140.499 182.032 140.051 182.032ZM149.395 182.032C149.011 182.032 148.659 181.893 148.339 181.616C148.04 181.339 147.891 180.933 147.891 180.4C147.891 179.696 148.083 179.163 148.467 178.8C148.872 178.437 149.309 178.256 149.779 178.256C150.184 178.256 150.547 178.405 150.867 178.704C151.187 179.003 151.336 179.451 151.315 180.048C151.272 180.709 151.048 181.211 150.643 181.552C150.259 181.872 149.843 182.032 149.395 182.032Z" fill="#1B0000"/>
</svg>
