<svg xmlns="http://www.w3.org/2000/svg" xmlns:xlink="http://www.w3.org/1999/xlink" xmlns:serif="http://www.serif.com/" viewBox="0 0 101 126.25" version="1.1" xml:space="preserve" style="" x="0px" y="0px" fill-rule="evenodd" clip-rule="evenodd" stroke-linejoin="round" stroke-miterlimit="1.41421"><rect serif:id="Page 41" x="0.5" y="0.5" width="100" height="100" style="" fill="none"/><path d="M42.485,11.572c3.482,-0.406 7.066,-0.223 10.467,-0.194c1.734,-0.562 3.616,-0.743 5.352,-0.69c0.843,0.026 1.665,0.32 2.293,0.898c0,0 1.501,0.089 2.789,0.182c0.269,0.02 1.914,-0.32 3.509,-0.311c2.162,0.024 4.306,0.385 6.412,0.925c1.263,0.232 2.85,0.044 3.498,1.345c0.157,0.316 0.148,0.85 0.148,0.85c0.838,0.437 2.301,1.542 2.288,3.301c-0.001,0.125 -0.003,0.249 -0.006,0.374c-0.061,2.369 -0.519,4.722 -1.213,6.992c1.612,0.67 3.18,1.312 4.577,2.036c3.039,1.576 5.967,3.56 8.072,6.279c0.353,0.455 0.533,0.983 0.624,1.548c0.098,-0.319 0.202,-0.637 0.313,-0.954c0.124,-0.355 1.076,-2.98 2.646,-2.595c1.364,0.335 1.372,2.543 1.117,4.431c-0.447,3.301 -2.213,6.314 -3.989,9.218c-0.04,0.818 -0.104,1.634 -0.203,2.447c-0.387,3.157 -1.136,6.254 -1.858,9.353c-0.232,1.262 -0.488,2.518 -0.784,3.762c0.556,2.989 0.77,6.029 1.082,9.07c0.168,1.591 0.347,3.25 -0.049,4.762c-0.219,0.832 -0.808,1.49 -1.769,1.774c-1.419,0.419 -2.912,0.326 -4.398,0.066c-0.464,0.41 -0.911,0.84 -1.31,1.323c-0.491,0.586 -0.996,1.16 -1.516,1.721c-0.011,1.919 -0.081,3.835 -0.394,5.685c-0.046,0.276 -0.039,0.427 -0.324,0.78c0,0 -0.202,0.209 -0.391,0.31c-0.788,0.419 -1.737,0.245 -2.722,0.177c-1.707,-0.117 -3.408,-0.328 -5.109,-0.543c0,0 -0.258,0.057 -0.513,0.18c-2.099,0.994 -4.302,1.84 -6.552,2.428c-0.84,0.723 -1.843,1.257 -2.99,1.516c-2.077,0.468 -4.288,0.264 -6.336,0.224c-6.063,-0.15 -11.831,-3.21 -16.316,-7.206c0,0 -0.784,-0.247 -1.576,-0.509c-0.149,0.092 -0.299,0.183 -0.443,0.268c-2.463,1.452 -5.215,2.193 -8.219,2.549c-0.486,0.056 -0.979,0.077 -1.461,0.148c-0.151,0.022 -0.211,0.029 -0.211,0.029c-0.17,0.02 -0.34,0.035 -0.511,0.04c-0.124,0.004 -0.239,0.003 -0.325,-0.006c0,0 -0.482,-0.164 -0.482,-0.164l-0.364,-0.339l-0.195,-0.458l0.008,-0.498l0.21,-0.452c0,0 0.377,-0.327 0.377,-0.327l0.384,-0.135c2.361,-0.393 4.832,-1.141 7.363,-2.055c-1.492,-0.589 -2.962,-1.229 -4.399,-1.925c0,0 -3.217,0.233 -5.316,-0.121c-1.652,-0.279 -3.285,-1.028 -4.279,-2.348c0,0 -1.822,-0.536 -3.361,-1.032c-1.097,-0.353 -2.188,-0.728 -3.274,-1.115c-1.695,-0.603 -3.344,-1.275 -5.09,-1.825c-1.022,-0.325 -2.49,-0.679 -2.237,-2.036c0.238,-1.279 2.179,-1.651 3.75,-2.076l0.024,-0.007c-0.094,-6.813 -2.842,-13.241 -3.47,-19.888c-0.146,-1.546 -0.134,-3.099 -0.222,-4.657c-0.039,-0.74 -0.063,-1.564 0.44,-2.045c0.259,-0.248 0.343,-0.24 0.481,-0.29c0.588,-0.212 1.285,-0.018 1.696,0.465c0.438,0.514 0.5,1.244 0.707,1.846c1.507,4.309 2.858,8.67 4.944,12.72c0,0 0.167,-0.604 0.286,-1.038c0.263,-0.94 0.655,-1.842 1.121,-2.72c-0.007,-0.441 0.01,-0.888 0.01,-1.329c0,-0.168 0.013,-0.336 0.045,-0.501c0.076,-0.397 0.251,-0.772 0.426,-1.141c0,0 0.142,0.02 -0.063,-0.252c-2.094,-2.812 -2.907,-6.48 -2.17,-10.075c0.704,-3.434 2.551,-6.482 4.797,-9.147c-0.147,-2.172 -0.42,-4.356 0.517,-6.357c0.921,-1.965 4.034,-1.618 6.369,-0.202l0.035,0.021c2.137,-1.632 4.426,-3.055 6.868,-4.181c0,0 0.075,0.21 0.015,-0.333c-0.152,-1.47 0.271,-3.014 1.146,-4.146c1.223,-1.579 3.038,-2.456 4.943,-3.003c0.503,-0.602 1.301,-0.996 2.576,-1.026c0.572,-0.014 1.134,0.064 1.685,0.209Zm17.939,71.686c-1.069,0.074 -2.143,0.074 -3.214,0.033c0,0 -0.547,0.582 -1.157,0.805c-1.73,0.632 -3.776,0.305 -5.245,0.329c-2.155,0.032 -4.315,-0.027 -6.454,-0.289l-0.061,-0.007c3.283,2.107 7.092,3.414 10.942,3.682c0.011,-0.293 0.119,-0.586 0.333,-0.812c0,0 1.24,-0.798 2.173,-1.317c0.884,-0.492 1.793,-0.935 2.707,-1.363c0,0 -0.183,-0.575 -0.024,-1.06l0,-0.001Zm3.883,1.862c-1.114,0.538 -2.228,1.077 -3.348,1.606l-0.051,0.024c0.906,-0.151 1.804,-0.345 2.693,-0.573c0.041,-0.049 0.082,-0.1 0.122,-0.152c0.218,-0.285 0.413,-0.588 0.584,-0.905Zm12.491,-4.511c-0.259,0.157 -0.518,0.313 -0.782,0.462c0,0 -0.354,0.869 -0.745,1.461c-0.291,0.442 -0.628,0.851 -0.988,1.238l-0.025,0.026c1.204,0.134 2.409,0.27 3.617,0.298l0.022,0.001c0.073,-0.827 0.122,-1.656 0.16,-2.486c-0.096,0.01 -0.193,0.004 -0.289,-0.023c-0.444,-0.123 -0.824,-0.469 -0.958,-0.89c0,0 -0.005,-0.032 -0.012,-0.087Zm-11.644,1.463c0.012,-0.221 0.013,-0.443 0.004,-0.664c-0.022,0.016 -0.044,0.032 -0.066,0.047c-0.632,0.459 -1.279,0.899 -1.98,1.222c0.253,-0.013 0.506,-0.024 0.759,-0.028c0,0 0.638,-0.284 1.283,-0.577Zm-0.295,-3.285c-0.773,0.126 -1.555,0.225 -2.335,0.317c-5.002,0.59 -10.124,0.168 -14.944,-1.435c0,0 -1.067,0.561 -2.229,1.127c2.278,0.298 4.562,0.548 6.824,0.836c0.611,0.084 0.682,0.124 0.932,0.177c1.101,0.233 2.213,0.457 3.205,1.034l0.003,0.002c1.704,0.107 3.423,0.141 5.113,-0.094c1.102,-0.163 1.982,-1.087 2.941,-1.704c0,0 0.198,-0.128 0.49,-0.26Zm2.934,-0.241c-0.188,0.76 -0.166,1.561 0,2.324c0,0 2.234,-0.912 4.086,-1.64l0.119,-0.047c-1.339,-0.376 -2.741,-0.523 -4.136,-0.64c0,0 -0.063,-0.02 -0.069,0.003Zm6.624,-3.617c-0.5,0.122 -1.003,0.231 -1.509,0.328c0,0 -0.86,0.646 -1.825,1.273c0.184,0.032 0.366,0.066 0.542,0.102c1.175,0.242 2.37,0.572 3.309,1.279c0,0 1.066,-0.452 1.953,-0.595c0.399,-0.065 0.814,-0.077 1.208,0.017c0.028,-0.024 0.055,-0.048 0.081,-0.073c0.004,-0.637 0,-1.274 -0.019,-1.91l-0.002,-0.049c-1.226,-0.222 -2.477,-0.32 -3.738,-0.372Zm-35.509,-1.991c-0.396,1.385 -1.79,2.627 -2.937,3.509c0.134,0.163 0.307,0.368 0.307,0.368c1.035,0.515 2.101,0.814 3.26,1.054c0.915,-0.824 1.778,-1.705 2.598,-2.624c-1.164,-0.661 -2.238,-1.433 -3.228,-2.307Zm5.323,3.555l-0.283,0.32c0.278,-0.133 0.649,-0.316 0.649,-0.316c-0.136,-0.061 -0.184,-0.21 -0.366,-0.004Zm-22.056,-6.105c1.585,2.812 4.381,4.813 7.171,6.264l0.029,0.016c0.457,-0.068 0.909,-0.161 1.356,-0.277l0.051,-0.013c-0.058,-0.043 -0.116,-0.087 -0.173,-0.13c-1.957,-1.505 -3.435,-3.605 -4.677,-5.749l-0.013,-0.023c-1.255,-0.048 -2.509,-0.111 -3.76,-0.122c0,0 0.009,0.021 0.016,0.034Zm30.702,5.039c-0.458,-0.072 -0.915,-0.15 -1.371,-0.235c0,0 -0.028,-0.019 -0.082,0.019c-0.461,0.322 -1.125,0.766 -1.125,0.766c0.708,0.184 1.423,0.339 2.142,0.467c0,-0.258 0.078,-0.527 0.26,-0.791c0.055,-0.08 0.114,-0.155 0.176,-0.226Zm13.411,0.562c-0.079,0.004 -0.158,0.008 -0.237,0.012c-0.093,0.005 -0.187,0.009 -0.28,0.014c0.13,0.005 0.259,0.011 0.389,0.017c0,0 0.036,0.043 0.128,-0.043Zm-45.126,-2.715c-0.024,0.468 -0.019,0.937 0.016,1.403l0.003,0.036c0.591,0.167 1.182,0.329 1.774,0.489c0,0 -0.635,-0.627 -1.106,-1.162c-0.357,-0.405 -0.675,-0.979 -0.687,-0.766Zm25.062,0.928l-0.247,0.287c0.43,0.187 0.863,0.363 1.3,0.529l0.032,0.012c0.386,-0.229 0.933,-0.576 0.933,-0.576c-0.128,-0.034 -0.257,-0.069 -0.386,-0.104c-0.435,-0.121 -0.922,-0.174 -1.385,-0.25c0,0 -0.067,-0.108 -0.247,0.102Zm-14.516,-3.393c0.903,1.27 1.82,2.53 2.77,3.765c0.91,-0.696 2.113,-1.349 2.146,-2.334c0,-0.019 0,-0.039 -0.002,-0.059c-0.058,-0.475 -1.43,-0.651 -2.24,-0.876c-0.878,-0.244 -1.777,-0.404 -2.681,-0.515c0,0 -0.023,-0.024 0.007,0.019Zm55.665,0.432c-0.113,0.76 -0.338,1.487 -0.797,2.136c-0.217,0.306 -0.456,0.591 -0.71,0.861c0.145,-0.003 0.289,-0.01 0.433,-0.021c0.383,-0.028 0.94,-0.177 0.94,-0.177c0.259,-0.866 0.229,-1.833 0.134,-2.799Zm-70.664,-0.897c-2.315,-0.013 -4.618,0.035 -6.798,0.616c2.907,1.076 5.817,2.133 8.778,3.026c0,0 0.055,0.323 0.063,-0.332c0.013,-0.663 0.076,-1.324 0.181,-1.979c-0.55,0.046 -1.115,-0.089 -1.678,-0.507c-0.29,-0.215 -0.462,-0.5 -0.546,-0.824Zm68.411,-2.032c-1.367,1.752 -3.056,3.249 -4.968,4.379c0.104,0.182 0.182,0.386 0.23,0.614l0.004,0.021c0.761,0.174 1.529,0.368 2.296,0.532c0.127,-0.105 0.255,-0.21 0.382,-0.316c0.907,-0.758 1.907,-1.579 2.024,-2.799c0.078,-0.804 0.028,-1.618 0.032,-2.431Zm-12.739,3.612c0.001,-0.207 -0.077,-0.425 -0.287,-0.638c-0.311,-0.316 -0.7,-0.552 -1.096,-0.761c0,0 -0.008,-0.007 -0.018,-0.001c-1.5,0.87 -3.117,1.505 -4.796,1.981c1.516,-0.067 3.036,-0.081 4.554,-0.06c0,0 0.662,-0.245 1.217,-0.405c0.142,-0.041 0.284,-0.079 0.426,-0.116Zm-20.566,-4.426c-1.205,1.47 -2.413,2.937 -3.633,4.394l-0.008,0.009c1.206,0.107 2.417,0.102 3.626,0.052c1.545,-1.205 3.01,-2.53 4.294,-4.013l0.077,-0.09c-1.387,-0.151 -2.777,-0.312 -4.165,-0.488c0,0 -0.119,0.048 -0.191,0.136Zm7.112,0.736c-0.92,1.234 -1.97,2.366 -3.09,3.42c4.028,-0.367 8.121,-0.701 11.84,-2.184c0,0 -1.116,0.031 -1.659,0.007c-0.714,-0.033 -1.45,-0.2 -2.015,-0.636l-0.007,-0.005c-1.625,-0.252 -3.256,-0.462 -4.889,-0.656c0,0 -0.107,-0.044 -0.18,0.054Zm25.639,-11.929c-0.739,1.064 -1.519,2.098 -2.361,3.082c-1.491,1.744 -3.264,3.224 -4.88,4.821c-0.94,0.92 -2.068,1.649 -3.145,2.422c-0.043,0.88 -0.428,1.711 -1.053,2.352c0,0 -0.103,-0.033 0.175,0.181c0.754,0.594 1.328,1.433 1.466,2.344c0.834,-0.084 1.681,-0.109 2.535,-0.085c2.929,-1.344 5.45,-3.492 7.058,-6.419c0.608,-1.099 1.168,-2.164 1.517,-3.485c0.036,-0.134 0.071,-0.27 0.105,-0.405c0.034,-0.173 0.068,-0.346 0.102,-0.519c-0.137,-0.637 -0.297,-1.269 -0.483,-1.893c-0.192,-0.643 -0.38,-1.342 -0.811,-1.781c0,0 -0.151,-0.269 -0.225,-0.615Zm-46.867,8.221c0.828,1.574 1.809,3.089 3.096,4.32l0.032,0.031c1.487,0.878 3.064,1.601 4.685,2.204l0.17,0.062c1.156,-1.368 2.295,-2.747 3.432,-4.129l0.037,-0.045c-3.874,-0.578 -7.734,-1.351 -11.452,-2.488c0,0 -0.06,-0.071 0,0.045Zm-2.154,4.638c-0.356,-0.502 -0.696,-1.022 -1.022,-1.559c0,0 -0.824,-0.615 -1.525,-1.108c-1.872,-1.322 -3.668,-2.744 -5.312,-4.355c0,0 -0.459,0.822 -0.908,1.58c1.08,1.382 2.085,2.823 3.048,4.296l0.143,0.219c0.136,0.007 0.272,0.016 0.407,0.025c1.756,0.122 3.486,0.415 5.169,0.902Zm-17.244,-3.462c-0.255,-2.398 -0.078,-4.846 0.27,-7.225c0,0 -0.045,-0.518 -0.138,-0.168c-0.075,0.279 -0.147,0.56 -0.222,0.839c-0.291,1.078 -0.624,2.261 -1.5,2.89c-0.707,0.507 -1.728,0.181 -2.5,-0.414c-1.294,1.847 -2.456,3.708 -2.507,6.224c-0.003,0.133 -0.164,0.351 0.16,0.312c1.272,-0.15 2.557,-0.193 3.841,-0.195l1.364,0c0.012,-0.028 0.023,-0.055 0.035,-0.083c0.319,-0.765 0.757,-1.474 1.197,-2.18Zm6.045,1.644c-0.171,0.219 -0.344,0.436 -0.522,0.649c0.219,0.007 0.438,0.015 0.656,0.024l0.173,0.007c-0.039,-0.083 -0.078,-0.167 -0.116,-0.251c-0.065,-0.143 -0.128,-0.286 -0.191,-0.429Zm41.952,-8.07c-0.563,2.244 -0.863,4.515 -0.913,6.859c-0.004,0.202 0.008,0.497 0.008,0.497c0.797,0.13 1.592,0.266 2.383,0.416c0.245,-0.02 0.318,-0.035 0.475,-0.064c1.195,-0.221 2.299,-0.823 3.336,-1.485c-0.99,-2.586 -3.337,-4.471 -5.187,-6.132c-0.034,-0.03 -0.091,-0.136 -0.102,-0.091Zm-2.357,-2.076c-0.169,0.211 -0.369,0.396 -0.588,0.557c-0.584,2.831 -1.519,5.631 -2.94,8.168c0.814,0.101 1.625,0.207 2.436,0.32c0,0 0.134,0.203 0.141,-0.161c0.067,-2.896 0.474,-5.771 1.303,-8.541c0,0 -0.293,-0.419 -0.352,-0.343Zm-3.285,1.59c-0.602,0.121 -1.215,0.207 -1.822,0.288l-0.092,0.012c-1.322,1.569 -2.628,3.155 -3.93,4.743c0.138,0.279 0.13,0.234 0.199,0.36c0.182,0.348 0.259,0.738 0.162,1.129l-0.002,0.007c0.793,0.089 1.586,0.175 2.378,0.263l0.261,0.029c1.311,-2.088 2.214,-4.394 2.836,-6.791c0.003,-0.013 0.023,-0.042 0.01,-0.04Zm17.46,-30.998c0.006,0.714 -0.025,1.497 -0.138,2.207c0,0 1.301,1.436 2.272,2.639c2.661,3.295 4.763,7.145 4.805,11.501c0.017,2.542 -0.119,5.33 -2.478,6.903c-2.183,1.456 -5.073,1.413 -7.666,1.3c-1.805,-0.079 -3.605,-0.259 -5.394,-0.562l-0.092,-0.016c-0.893,1.583 -1.689,3.228 -2.323,4.933l-0.026,0.072c2.558,2.216 5.115,4.434 6.513,7.327c1.725,-1.275 3.286,-2.767 4.815,-4.218c4.481,-4.27 7.357,-10.076 10.596,-15.368l0.031,-0.136c0.023,-0.523 0.033,-1.047 0.028,-1.571c-0.016,-1.93 -0.085,-3.854 -0.079,-5.783c0.007,-0.697 0.213,-1.454 -0.203,-1.995c-2.674,-3.434 -6.804,-5.498 -10.661,-7.233Zm-39.18,34.56c2.199,0.649 4.442,1.169 6.696,1.598l0.045,0.009c-2.256,-0.577 -4.52,-1.107 -6.788,-1.628c0,0 -0.293,-0.081 0.047,0.021Zm-2.258,-8.843c-0.367,1.879 -0.22,3.849 -0.194,5.772l0.001,0.067c4.719,1 9.426,2.101 14.004,3.452c0.451,0.136 0.628,0.22 0.941,0.346l0.007,0.003c-1.051,-1.375 -2.185,-2.684 -3.345,-3.969c0,0 -1.151,-0.224 -2.23,-0.487c-3.478,-0.846 -6.775,-2.628 -9.178,-5.215c-0.002,0.01 -0.004,0.021 -0.006,0.031Zm-5.715,8.391c0.492,0.421 0.995,0.83 1.506,1.228c0,0 -0.113,-0.613 -0.113,-0.613c-0.107,-0.046 -0.215,-0.093 -0.322,-0.141c-0.369,-0.164 -0.737,-0.331 -1.103,-0.502c0.011,0.009 0.021,0.018 0.032,0.028Zm-9.666,-0.523c-0.198,-0.178 -0.402,-0.362 -0.591,-0.535c0,0 -0.007,0.02 -0.008,0.033c-0.041,0.473 -0.072,0.948 -0.091,1.423c0.227,-0.309 0.457,-0.616 0.69,-0.921Zm-12.927,-11.483c0.548,4.128 1.782,8.164 2.585,12.252c0,0 0.521,-0.786 0.944,-1.397c0.25,-0.358 0.501,-0.714 0.749,-1.073c0,0 -0.431,-0.866 -0.757,-1.511c-1.38,-2.707 -2.528,-5.505 -3.531,-8.36c0,0 0.006,0.056 0.01,0.089Zm46.945,9.439c-1.266,0.06 -2.534,0.089 -3.801,0.058c0,0 0.696,0.867 1.293,1.618c0.244,0.308 0.595,0.766 0.595,0.766c0.623,-0.759 1.247,-1.517 1.873,-2.272c0,0 0.298,-0.183 0.04,-0.17Zm-29.575,0.63c-0.149,0.56 -0.324,1.112 -0.517,1.658c0.233,-0.414 0.459,-0.831 0.679,-1.251c0,0 0.134,0.01 -0.055,-0.216c-0.047,-0.056 -0.076,-0.132 -0.107,-0.191Zm-9.801,-1.602c-0.126,0.404 -0.271,0.803 -0.445,1.189c0.091,0.099 0.072,0.004 0.087,-0.034c0.153,-0.379 0.26,-0.774 0.364,-1.168c0,0 0.026,-0.09 -0.006,0.013Zm16.342,-5.864c-0.134,0.176 -0.339,0.431 -0.339,0.431c-0.07,0.167 -0.14,0.333 -0.21,0.5c-0.644,1.517 -1.311,3.035 -1.999,4.542l-0.069,0.149c0.7,0.11 1.401,0.217 2.099,0.329l0.074,0.012c-0.081,-2.007 0.091,-4.023 0.474,-5.987c0,0 0.045,-0.075 -0.03,0.024Zm13.16,-8.347c-1.826,0.332 -3.639,0.787 -5.363,1.477c-0.158,0.375 -0.35,0.803 -0.35,0.803c3.121,3.377 6.208,6.857 9.308,10.229l0.167,0.183c2.744,0.3 5.573,0.205 8.284,-0.027l0.045,-0.004c0.907,-1.071 1.819,-2.137 2.731,-3.204l0.032,-0.038c-2.238,-2.267 -4.419,-4.578 -6.568,-6.919l-0.026,-0.028c-2.621,-0.959 -5.271,-1.845 -7.992,-2.461c0,0 -0.125,-0.036 -0.268,-0.011Zm-6.981,4.948c-0.268,0.554 -0.534,1.109 -0.788,1.669l-0.027,0.06c1.645,2.609 4.654,4.255 7.519,5.182c0,0 -0.598,-0.667 -1.172,-1.301c-1.059,-1.171 -2.111,-2.348 -3.167,-3.522c-0.676,-0.749 -1.354,-1.498 -2.037,-2.243l-0.166,-0.18c-0.054,0.112 -0.108,0.224 -0.162,0.335Zm48.579,6.838c0.261,-1.543 0.494,-3.091 0.745,-4.628c0,0 0.042,-0.149 0.008,-0.093c-0.745,1.243 -1.499,2.486 -2.292,3.701c0.442,-0.031 0.924,0.187 1.267,0.632c0.097,0.125 0.188,0.255 0.272,0.388Zm-60.786,-0.512c0.257,-0.257 0.579,-0.581 0.862,-0.867c0.602,-0.606 1.211,-1.207 1.801,-1.826c0,0 0.009,-0.489 0.103,-0.77c0.216,-0.638 0.811,-1.08 1.299,-1.536c0,0 0.221,-0.404 0.343,-0.712c0.765,-1.943 1.489,-3.904 2.189,-5.875c0,0 0.111,-0.168 0.025,-0.167c-2.204,0.039 -4.353,0.662 -6.477,1.351c-0.04,0.055 -0.079,0.111 -0.118,0.167c-0.609,0.877 -1.088,1.834 -1.413,2.834c0.431,0.491 0.706,1.239 0.835,2.026c0.287,1.768 0.527,3.576 0.551,5.375Zm39.356,-4.44c-0.509,0.614 -1.021,1.226 -1.536,1.837c-0.039,0.42 0.118,0.522 0.183,0.753c0.067,0.236 0.12,0.477 0.16,0.719c0.324,0.317 0.761,0.742 0.761,0.742c0.519,-1.284 1.124,-2.54 1.785,-3.765c0,0 -0.64,-0.179 -1.238,-0.349c0,0 0.004,-0.081 -0.115,0.063Zm-43.318,-2.964c0.143,-0.526 0.322,-1.043 0.534,-1.544c0,0 0.104,-0.089 -0.05,-0.012c-0.151,0.076 -0.3,0.155 -0.448,0.236c-0.484,0.663 -0.958,1.331 -1.395,2.017c-0.211,0.33 -0.354,0.838 -0.511,1.299c-0.138,0.404 -0.259,0.814 -0.358,1.23c0.116,0.127 0.232,0.254 0.35,0.379c0.209,-0.53 0.428,-1.074 0.587,-1.445c0.321,-0.755 0.714,-1.61 1.291,-2.16Zm54.966,-15.132c-0.356,1.073 -0.791,2.118 -1.277,3.137c0,0 0.089,1.306 0.06,2.443c-0.099,3.992 -3.059,7.54 -5.285,11.071l-0.008,0.012c2.22,0.328 4.473,0.474 6.71,0.46c1.515,-0.01 3.123,-0.207 4.278,-1.347c1.131,-1.117 0.967,-3.114 0.919,-4.789c-0.129,-4.119 -2.614,-7.866 -5.315,-10.982c0,0 -0.034,-0.149 -0.082,-0.005Zm-4.156,8.12c-1.779,2.718 -3.727,5.317 -5.759,7.852l0.878,0.224c0.134,-0.22 0.268,-0.438 0.404,-0.656c1.547,-2.468 3.434,-4.709 4.512,-7.473c-0.011,0.017 -0.023,0.035 -0.035,0.053Zm0.308,-6.154c-1.787,2.635 -3.741,5.317 -6.654,6.492c-0.787,0.317 -1.595,0.574 -2.416,0.786c0.005,0.322 0.01,0.643 0.014,0.965c0.019,1.612 0.023,3.225 -0.012,4.837l0.498,0.213c3.21,-3.953 6.355,-7.998 8.674,-12.536c-0.005,-0.072 -0.012,-0.144 -0.019,-0.216c-0.026,-0.264 -0.043,-0.604 -0.085,-0.541Zm-55.021,-0.361c-0.347,0.538 -0.672,1.085 -0.972,1.641c-1.934,3.58 -2.553,8.133 -0.234,11.623c0,0 0.322,-0.351 0.693,-0.723c0.355,-4.166 0.48,-8.352 0.513,-12.541Zm43.552,8.131c-1.834,0.29 -3.695,0.424 -5.553,0.54l-0.289,0.018c0.807,0.906 1.62,1.81 2.444,2.704c1.13,0.43 2.259,0.855 3.393,1.266l0.025,0.009c0.025,-1.51 0.012,-3.021 -0.009,-4.531c0,0 0.011,-0.009 -0.011,-0.006Zm-36.589,-15.679c-1.66,1.337 -3.207,2.802 -4.572,4.377c0.008,0.18 0.013,0.361 0.015,0.54c0.01,4.304 -0.066,8.577 -0.342,12.844c0.859,-1.242 1.865,-2.393 2.837,-3.51c0.171,-0.194 -0.063,-0.066 0.462,-0.379l0.001,-0.001c0.255,-0.09 0.256,-0.091 0.526,-0.122c0,0 0.22,0.012 0.358,0.055c0.313,0.098 0.358,0.19 0.588,0.408c0,0 0.111,0.156 0.16,0.273c0.142,0.339 0.154,0.422 0.008,0.907c0,0 -0.073,0.113 -0.192,0.294c0.214,-0.245 0.502,-0.573 0.767,-0.863c1.338,-1.461 2.854,-2.75 4.437,-3.935c0,0 -0.345,-0.706 -0.601,-1.492c-0.646,0.491 -1.664,1.048 -2.365,-0.12c0,0 -0.327,-1.193 -0.194,-2.065c0.206,-1.351 0.927,-2.554 1.548,-3.775c0.14,-0.273 0.291,-0.543 0.444,-0.812c-1.303,-0.861 -2.576,-1.769 -3.885,-2.624Zm18.252,8.416c-0.217,0.287 -0.432,0.574 -0.646,0.863c-0.142,0.193 -0.351,0.474 -0.357,0.491c-0.133,0.353 -0.665,1.663 -1.051,2.565c0,0 -0.026,0.948 -0.144,1.815c0,0 0.912,0.058 1.653,0.15c0.851,0.105 1.695,0.265 2.534,0.439c0,0 0.997,-0.15 1.871,-0.258c0.452,-0.056 0.905,-0.105 1.358,-0.151l0.066,-0.006c-1.656,-1.871 -3.297,-3.756 -4.935,-5.643l-0.293,-0.339c-0.019,0.025 -0.038,0.05 -0.056,0.074Zm-11.97,4.545c-0.725,0.549 -1.431,1.123 -2.111,1.726c0,0 0.917,-0.181 1.665,-0.26c0.436,-0.046 0.874,-0.073 1.311,-0.088c0,0 -0.511,-0.849 -0.833,-1.363c0,0 -0.002,-0.038 -0.032,-0.015Zm6.177,-3.138c-0.46,1.345 -0.91,2.694 -1.37,4.039l-0.126,0.368l0.495,-0.02c0.666,-1.143 1.376,-2.268 2.114,-3.372c0,0 -0.167,-0.345 -0.345,-0.527c-0.218,-0.224 -0.475,-0.405 -0.741,-0.567c-0.009,0.027 -0.018,0.053 -0.027,0.079Zm11.144,-7.257c-0.701,1.37 -1.018,2.933 -0.344,4.378c1.177,2.527 3.303,4.557 5.157,6.657l0.311,0.353c2.573,-0.146 5.148,-0.252 7.699,-0.675l0.133,-0.023c-0.047,-2.64 -0.039,-5.289 -0.045,-7.911l-0.001,-0.108c-4.351,-0.652 -8.642,-1.597 -12.907,-2.677c-0.001,0.002 -0.002,0.004 -0.003,0.006Zm15.307,3.066c0.003,2.275 -0.006,4.548 0.031,6.819l0.005,0.265c0.551,-0.16 1.095,-0.346 1.626,-0.563c2.648,-1.082 4.335,-3.795 5.805,-6.044l0.039,-0.06c-1.408,-0.402 -2.94,-0.176 -4.51,-0.252c-0.982,-0.048 -1.962,-0.122 -2.941,-0.228c0,0 -0.055,-0.076 -0.055,0.063Zm-29.339,5.083c-0.439,0.261 -0.872,0.534 -1.296,0.821c0,0 0.34,0.6 0.643,1.105l0.036,0.059c0.228,-0.665 0.453,-1.33 0.678,-1.996c0,0 0.089,-0.076 -0.061,0.011Zm-2.896,-2.238c0.097,0.341 0.232,0.67 0.382,0.991c0.494,-0.33 0.995,-0.642 1.506,-0.937l-0.426,-0.054c-0.488,0 -0.975,0 -1.462,0Zm8.512,-0.215c-0.263,0.105 -0.667,-0.076 -0.162,0.463c0,0 0.318,-0.527 0.162,-0.463Zm5.231,-2.621c-0.256,0.32 -0.614,0.77 -0.614,0.77c0.326,0.376 0.652,0.752 0.977,1.127l0.243,0.28c-0.026,-0.058 -0.051,-0.116 -0.076,-0.174c-0.275,-0.645 -0.436,-1.334 -0.476,-2.033c0,0 0.057,-0.109 -0.054,0.03Zm-13.782,-1.334c-0.002,0.584 0.02,1.168 0.024,1.753c0,0 1.576,0.021 1.576,0.021c0.953,0.079 1.899,0.256 2.822,0.511c0,0 0.29,-0.728 0.636,-1.53c-0.147,0.084 -0.305,0.156 -0.474,0.215c-1.604,0.554 -3.263,-0.225 -4.584,-0.97Zm8.048,0.008c-0.314,0.622 -0.604,1.256 -0.875,1.898c0.059,-0.019 0.118,-0.039 0.178,-0.06c0.57,-0.199 1.01,-0.395 1.642,-0.69c0.065,-0.029 0.136,-0.058 0.136,-0.058l-0.497,-0.576l-0.533,-0.615c-0.017,0.034 -0.034,0.068 -0.051,0.101Zm2.255,-3.507c-0.324,0.397 -0.63,0.807 -0.919,1.23c0.353,0.408 0.706,0.816 1.059,1.224l1.13,1.306c0.745,-0.935 1.503,-1.864 2.265,-2.787l0.028,-0.034c-0.98,-0.264 -1.958,-0.533 -2.936,-0.806l-0.333,-0.093c0,0 -0.225,-0.123 -0.294,-0.04Zm24.82,-3.988c-0.403,0.217 -0.88,0.409 -1.402,0.496c-0.568,0.094 -1.143,0.126 -1.72,0.109c0.151,1.849 0.22,3.704 0.252,5.564l0.002,0.16c1.866,0.226 3.737,0.3 5.634,0.313c1.07,0.011 2.155,0.086 3.144,0.49c0.286,-0.518 0.557,-1.043 0.816,-1.573l0.028,-0.057c-1.745,-1.663 -3.558,-3.227 -5.491,-4.699c-0.398,-0.3 -0.823,-0.563 -1.263,-0.803Zm-30.339,3.473c-0.438,-0.545 -0.869,-1.096 -1.293,-1.654l-0.002,-0.004c-0.402,-0.122 -0.806,-0.238 -1.211,-0.35c0,0 -0.038,-0.025 -0.067,0.014c-0.24,0.323 -0.565,0.812 -0.565,0.812c-0.028,0.066 -0.057,0.133 -0.086,0.2c-0.365,0.836 -0.77,1.658 -1.189,2.473c0.416,0.235 0.838,0.459 1.269,0.667c0.686,0.33 1.471,0.815 2.165,0.56c0.662,-0.243 0.857,-1.643 0.979,-2.718Zm18.108,-5.667c-0.565,0.676 -1.127,1.353 -1.69,2.031l0.032,0.006c0.387,0.257 0.392,0.261 0.651,0.646l0.093,0.458c-0.077,0.397 -0.045,0.544 -0.348,0.848c-0.109,0.111 -0.258,0.174 -0.387,0.261l-0.458,0.093c-0.95,0.004 -1.7,0.795 -2.33,1.48l-0.011,0.011c3.713,0.927 7.457,1.73 11.243,2.325l0.167,0.026c-0.033,-1.903 -0.109,-3.806 -0.281,-5.698c-0.743,-0.159 -1.474,-0.363 -2.18,-0.579c-1.559,-0.478 -3.052,-1.142 -4.501,-1.908Zm-31.624,4.101c-0.867,-0.455 -1.361,-0.562 -2.084,-0.486c-0.212,0.022 -0.209,0.181 -0.258,0.314c-0.308,0.842 -0.374,1.742 -0.349,2.67c0.096,-0.096 0.193,-0.192 0.289,-0.286c0.776,-0.763 1.577,-1.502 2.402,-2.212Zm7.007,1.758c0.064,-0.172 0.089,-0.228 0.145,-0.365c0.121,-0.291 0.251,-0.579 0.391,-0.862c0.209,-0.421 0.44,-0.832 0.687,-1.232c0,0 0.366,-0.095 -0.324,-0.172c-0.573,-0.065 -1.058,-0.436 -1.162,-1.101c-0.016,0.009 -0.032,0.019 -0.048,0.028c-0.881,0.535 -1.749,1.104 -2.596,1.705c0.97,0.666 1.929,1.35 2.907,1.999Zm9.421,-0.419c0,0 0.005,0.198 0.151,-0.001c0,0 -0.392,-0.288 -0.151,0.001Zm34.04,-1.124c0.372,0.329 0.74,0.662 1.105,0.999l0.06,0.055c0.062,-0.154 0.122,-0.309 0.181,-0.465c-0.451,-0.193 -0.9,-0.388 -1.346,-0.589Zm-22.518,-3.679c-2.47,0.856 -4.937,1.905 -6.94,3.538l-0.026,0.021c1.095,0.304 2.191,0.601 3.29,0.893l0.01,0.002c1.229,-1.478 2.454,-2.959 3.682,-4.439c0,0 0.076,-0.047 -0.016,-0.015Zm-0.752,-3.275c-2.177,-0.141 -4.364,-0.159 -6.589,-0.178c-0.088,-0.001 -0.177,-0.001 -0.265,-0.001c-0.484,0.003 -0.969,0.021 -1.451,0.067l-0.018,0.001c-0.879,0.494 -1.742,1.015 -2.58,1.575c-0.032,1.312 -0.052,2.626 -0.116,3.933c0.685,0.223 1.371,0.444 2.059,0.654c0,0 0.741,-0.692 1.474,-1.268c2.476,-1.946 5.469,-3.185 8.518,-4.128c-0.346,-0.217 -0.69,-0.435 -1.032,-0.655Zm18.948,1.49c-0.003,0.034 -0.008,0.069 -0.012,0.103c0.067,0.058 0.136,0.116 0.204,0.173c1.513,1.256 3.262,2.233 5.067,3.082c-0.831,-1.266 -2.089,-2.26 -3.517,-2.839c-0.565,-0.229 -1.148,-0.397 -1.742,-0.519Zm-32.304,1.808c-0.2,0.168 -0.397,0.339 -0.591,0.514l-0.098,0.089c0.219,0.289 0.52,0.687 0.52,0.687l0.118,0.037c0.02,-0.442 0.036,-0.884 0.051,-1.327Zm31.059,-4.348c3.17,0.343 6.132,1.356 8.22,4.155l0.001,0.001c0.289,-1.396 0.463,-2.811 0.469,-4.245c0.003,-0.99 -1.522,-1.404 -2.914,-1.89c-3.256,-1.14 -6.729,-1.433 -10.186,-1.706c0,0 -0.1,-0.017 -0.158,0c-0.423,0.132 -0.834,0.298 -1.232,0.49l-0.064,0.031c0.288,0.972 0.484,1.966 0.709,2.958l0.014,0.06c0.809,-0.014 1.628,-0.023 2.446,-0.009c0.297,-0.283 0.639,-0.419 1.149,-0.399c0.549,0.035 1.09,0.248 1.546,0.554Zm-6.891,3.618c-0.02,-0.135 -0.039,-0.269 -0.06,-0.404c-0.716,-0.267 -1.437,-0.505 -2.165,-0.721c0,0 -0.061,-0.016 -0.14,-0.006c-0.265,0.034 -0.529,0.072 -0.793,0.112c1.026,0.432 2.076,0.783 3.158,1.019Zm4.223,-1.4c-0.08,0 -0.16,0 -0.24,0c-0.123,0 -0.303,0.001 -0.303,0.001c0.313,0.155 0.629,0.305 0.945,0.453c-0.059,-0.059 -0.114,-0.115 -0.16,-0.164c-0.084,-0.089 -0.166,-0.186 -0.242,-0.29Zm-28.118,-4.823c-0.229,0.109 -0.457,0.227 -0.681,0.353c-1.166,0.652 -2.148,1.742 -2.189,3.229c0.922,-0.386 1.837,-0.794 2.76,-1.165c0.016,-0.311 0.035,-0.622 0.056,-0.933c0.002,-0.038 0.004,-0.076 0.005,-0.114c0.014,-0.447 0.022,-0.911 0.049,-1.37Zm22.774,0.815c-0.634,0.495 -1.231,1.035 -1.805,1.597l0.84,0.235c0.459,-0.05 0.919,-0.09 1.38,-0.12c0,0 -0.181,-0.913 -0.362,-1.656c0,0 0.019,-0.113 -0.053,-0.056Zm-8.859,0.528c1.43,0.097 2.858,0.249 4.279,0.495c1.058,-1.144 2.19,-2.234 3.442,-3.168l0.039,-0.028c-1.828,-0.077 -3.658,-0.119 -5.488,-0.141c0,0 -0.179,-0.017 -0.294,0.024c-1.324,0.472 -2.631,1 -3.928,1.556c0.651,0.416 1.301,0.84 1.95,1.262Zm-9.163,-2.644c-0.727,0.089 -1.448,0.213 -2.157,0.387c-0.061,0.559 -0.171,1.611 -0.247,2.483c0.545,-0.149 1.098,-0.268 1.66,-0.347c0.084,-0.046 0.169,-0.092 0.253,-0.138c0.871,-0.469 1.753,-0.915 2.643,-1.343c-0.682,-0.42 -1.385,-0.8 -2.152,-1.042Zm4.668,-0.229l0.07,0.045l0.032,0.021l0.011,-0.005c0,0 0.326,-0.063 0.011,-0.062l-0.124,0.001Z" style="" fill-rule="nonzero"/><text x="0" y="116" fill="#000000" font-size="5px" font-weight="bold" font-family="'Helvetica Neue', Helvetica, Arial-Unicode, Arial, Sans-serif">Created by Zach Bogart</text><text x="0" y="121" fill="#000000" font-size="5px" font-weight="bold" font-family="'Helvetica Neue', Helvetica, Arial-Unicode, Arial, Sans-serif">from the Noun Project</text></svg>