<svg version="1.1" xmlns="http://www.w3.org/2000/svg" xmlns:xlink="http://www.w3.org/1999/xlink" height="340.97222900390625" width="340.97222900390625"><path d="M 73.83 110.14 C 74.01 109.96 74.37 109.78 74.72 109.25 C 75.08 108.72 73.83 109.43 75.61 107.47 C 77.39 105.52 81.12 101.78 83.61 99.47 C 86.1 97.16 85.74 98.05 88.06 95.92 C 90.37 93.78 91.26 91.65 95.17 88.81 C 99.08 85.96 104.59 83.47 107.61 81.69 C 110.63 79.92 107.79 80.98 110.28 79.92 C 112.77 78.85 117.03 77.25 120.06 76.36 C 123.08 75.47 122.9 75.83 125.39 75.47 C 127.88 75.12 128.23 74.58 132.5 74.58 C 136.77 74.58 141.92 74.94 146.72 75.47 C 151.52 76.01 153.83 76.72 156.5 77.25 C 159.17 77.78 156.86 76.54 160.06 78.14 C 163.26 79.74 168.94 82.76 172.5 85.25 C 176.06 87.74 175.52 87.56 177.83 90.58 C 180.14 93.61 182.1 96.98 184.06 100.36 C 186.01 103.74 185.83 103.92 187.61 107.47 C 189.39 111.03 190.99 114.58 192.94 118.14 C 194.9 121.69 195.43 120.63 197.39 125.25 C 199.34 129.87 201.48 137.34 202.72 141.25 C 203.97 145.16 203.26 140.89 203.61 144.81 C 203.97 148.72 204.68 156.01 204.5 160.81 C 204.32 165.61 203.79 164.89 202.72 168.81 C 201.66 172.72 200.77 176.63 199.17 180.36 C 197.57 184.09 196.68 184.45 194.72 187.47 C 192.77 190.49 191.34 192.98 189.39 195.47 C 187.43 197.96 188.68 197.25 184.94 199.92 C 181.21 202.58 174.63 206.67 170.72 208.81 C 166.81 210.94 170.9 209.52 165.39 210.58 C 159.88 211.65 149.21 213.43 143.17 214.14 C 137.12 214.85 138.72 214.67 135.17 214.14 C 131.61 213.61 128.41 212.89 125.39 211.47 C 122.37 210.05 122.37 209.52 120.06 207.03 C 117.74 204.54 115.61 201.87 113.83 199.03 C 112.06 196.18 112.06 196.72 111.17 192.81 C 110.28 188.89 109.57 182.85 109.39 179.47 C 109.21 176.09 109.74 178.23 110.28 175.92 C 110.81 173.61 110.28 172.36 112.06 167.92 C 113.83 163.47 117.21 157.25 119.17 153.69 C 121.12 150.14 120.06 151.92 121.83 150.14 C 123.61 148.36 124.86 146.94 128.06 144.81 C 131.26 142.67 130.54 141.78 137.83 139.47 C 145.12 137.16 155.97 135.21 164.5 133.25 C 173.03 131.29 175.17 130.41 180.5 129.69 C 185.83 128.98 186.72 129.69 191.17 129.69 C 195.61 129.69 196.86 129.34 202.72 129.69 C 208.59 130.05 214.99 130.58 220.5 131.47 C 226.01 132.36 225.66 132.18 230.28 134.14 C 234.9 136.09 240.94 139.83 243.61 141.25" fill="none" stroke="#000" stroke-linecap="round" stroke-linejoin="round" stroke-width="8"></path></svg>